<?xml version="1.0" encoding="UTF-8"?>
<svg viewBox="0 0 166 165.96875" xmlns="http://www.w3.org/2000/svg">
 <defs>
  <radialGradient id="a" cx="306.01" cy="557.44" r="83" gradientTransform="matrix(2.1684 .51337 -.23034 .97292 -229.13 -142)" gradientUnits="userSpaceOnUse">
   <stop stop-color="#240000" offset="0"/>
   <stop stop-color="#3c0000" stop-opacity=".49804" offset="0"/>
   <stop stop-color="#480000" stop-opacity=".24706" offset=".62932"/>
   <stop stop-color="#500" stop-opacity="0" offset="1"/>
  </radialGradient>
 </defs>
 <g transform="translate(-313.19 -475.56)">
  <path d="m393.9375,475.8125-2.75,6.5-.75,4.6875 .125,1.75-7,.90625-.3125-1.71875-1.9375-4.3125-4.3125-5.5625-4.4375,1.15625-.9375,7 .5,4.71875 .5625,1.65625-6.5,2.6875-.75-1.59375-3-3.65625-5.625-4.25-3.9375,2.25 .875,7 1.6875,4.4375 1,1.4375-5.625,4.3125-1.125-1.34375-3.875-2.75-6.5-2.6875-3.25,3.21875 2.6875,6.53125 2.75,3.84375 1.375,1.125-4.3125,5.625-1.4375-1-4.4375-1.6875-7-.875-2.25,3.9375 4.25,5.59375 3.6875,3 1.5625.78125-2.6875,6.53125-1.6875-.59375-4.6875-.46875-7,.9375-1.1875,4.40625 5.5625,4.3125 4.3125,1.9375 1.75.3125-.9375,7.03125-1.75-.15625-4.6875.78125-6.5,2.71875v4.53125l6.5,2.71875 4.6875.78125 1.75-.15625 .9375,7.03125-1.75.3125-4.3125,1.96875-5.5625,4.28125 1.1875,4.40625 7,.9375 4.6875-.46875 1.6875-.59375 2.6875,6.5625-1.5625.75-3.6875,3-4.25,5.59375 2.25,3.9375 7-.875 4.4375-1.6875 1.4375-1 4.3125,5.625-1.375,1.125-2.75,3.84375-2.6875,6.53125 3.25,3.21875 6.5-2.65625 3.875-2.78125 1.125-1.34375 5.625,4.3125-1,1.4375-1.6875,4.4375-.875,7 3.9375,2.28125 5.625-4.28125 3-3.65625 .75-1.59375 6.5,2.71875-.5625,1.65625-.5,4.6875 .9375,7 4.4375,1.1875 4.3125-5.59375 1.9375-4.3125 .3125-1.71875 7,.90625-.125,1.75 .75,4.6875 2.75,6.5h4.5625l2.6875-6.5 .75-4.6875-.125-1.75 7-.90625 .3125,1.71875 2,4.3125 4.3125,5.59375 4.375-1.1875 .9375-7-.4375-4.6875-.625-1.65625 6.5625-2.71875 .75,1.59375 3,3.65625 5.5625,4.28125 4-2.28125-.9375-7-1.6875-4.4375-1-1.4375 5.625-4.3125 1.1875,1.34375 3.8125,2.78125 6.5,2.65625 3.25-3.21875-2.6875-6.53125-2.75-3.84375-1.375-1.125 4.3125-5.625 1.5,1 4.375,1.6875 7,.875 2.3125-3.9375-4.3125-5.59375-3.625-3-1.625-.75 2.75-6.5625 1.625.59375 4.75.46875 6.9375-.9375 1.1875-4.40625-5.5625-4.28125-4.3125-1.96875-1.75-.3125 .9375-7.03125 1.75.15625 4.6875-.78125 6.5-2.71875v-4.53125l-6.5-2.71875-4.6875-.78125-1.75.15625-.9375-7.03125 1.75-.3125 4.3125-1.9375 5.5625-4.3125-1.1875-4.40625-6.9375-.9375-4.75.46875-1.625.59375-2.75-6.53125 1.625-.78125 3.625-3 4.3125-5.59375-2.3125-3.9375-7,.875-4.375,1.6875-1.5,1-4.3125-5.625 1.375-1.125 2.75-3.84375 2.6875-6.53125-3.25-3.21875-6.5,2.6875-3.8125,2.75-1.1875,1.34375-5.625-4.3125 1-1.4375 1.6875-4.4375 .9375-7-4-2.25-5.5625,4.25-3,3.65625-.75,1.59375-6.5625-2.6875 .625-1.65625 .4375-4.71875-.9375-7-4.375-1.15625-4.3125,5.5625-2,4.3125-.3125,1.71875-7-.90625 .125-1.75-.75-4.6875-2.6875-6.5h-4.5625zm2.25,30.53125c.96651,0 1.95262.04213 2.90625.09375-.09949,4.40159-1.1276,7.8826-2.40625,7.875s-2.2859-3.51994-2.375-7.9375c.6301-.02257 1.23944-.03125 1.875-.03125zm-7.71875.5625 3.0625,3.53125v-.0625l2.375,6.375v9.21875 .25 9.21875l-2.375,6.375v2.84375l-.0625.03125c-.3299.11206-.64999.2405-.96875.375h-.03125c-.31212.13068-.63695.28642-.9375.4375l-.09375.03125c-.25899.13459-.50042.28814-.75.4375l-.125.0625c-.07643.04674-.14326.10815-.21875.15625-.19238.12073-.37635.21449-.5625.34375-.08478.05954-.16656.12622-.25.1875-.30297.2199-.59039.47685-.875.71875-.1587.13488-.31606.26482-.46875.40625-.1196.11203-.22798.22779-.34375.34375-.26952.26655-.53322.52575-.78125.8125-.24184.27959-.4673.57741-.6875.875-.67919.9179-1.26881,1.90268-1.71875,2.96875h-3.21875l-6.375,2.375h-9.21875-.25-9.21875l-6.28125-2.34375-3.375-2.96875c3.71353-22.19258 21.42723-39.6805 43.75-43zm16.375.15625c22.1913,3.68786 39.6626,21.32274 42.96875,43.78125l-3.53125,3.0625h.0625l-6.375,2.375h-9.21875-.25-9.21875l-6.375-2.375h-2.84375c-.0074-.02213-.02375-.04042-.03125-.0625-.11419-.34119-.23712-.67069-.375-1-.27185-.64069-.58069-1.25397-.9375-1.84375l-.09375-.15625-.03125-.0625c-.18907-.3054-.38347-.58528-.59375-.875-.2199-.30297-.47685-.59039-.71875-.875s-.49137-.55099-.75-.8125c-.26655-.26952-.52575-.53322-.8125-.78125-.27959-.24184-.57741-.4673-.875-.6875-.91791-.67919-1.90268-1.26881-2.96875-1.71875v-3.21875l-2.375-6.375v-9.21875-.25-9.21875l2.34375-6.28125 3-3.40625zm-8.15625,31.65625c1.03299-.00615 1.92692,2.25218 2.28125,5.4375-.89409-.17199-1.83752-.2484-2.78125-.25-.16624-.00029-.33505.02641-.5.03125-.33747.00991-.66869.02972-1,.0625h-.09375-.125c.3577-3.09531 1.20518-5.27523 2.21875-5.28125zm-.75,12.625h.21875c.49822.00084.99873.0596 1.46875.15625h.03125c.22451.04717.43989.08882.65625.15625 .20816.06503.42548.13578.625.21875 .01253.00522.01876.02596.03125.03125h.03125c.20698.08854.39723.20578.59375.3125h.03125c.19657.10768.37757.25017.5625.375h.03125c.18468.12561.35936.26456.53125.40625 .0065.00535.02477-.00537.03125,0 .48268.40046.91685.86359 1.28125,1.375 .0341.04785.06081.10754.09375.15625 .12978.19189.23262.38932.34375.59375s.22124.40923.3125.625c.0635.1528.13431.31078.1875.46875l.03125.09375c.06132.19048.11051.39661.15625.59375 .01453.06259.01837.12429.03125.1875 .03437.16823.07114.32764.09375.5 .004.03043-.00362.0632 0,.09375 .02448.20693.05562.41296.0625.625 .00265.08221.00014.16711 0,.25-.00141.23851-.00731.48617-.03125.71875-.001.01011.00104.02116 0,.03125-.02489.23214-.07871.46241-.125.6875-.002.00993.00204.02133 0,.03125-.04718.22451-.08882.43989-.15625.65625-.00268.00872.00271.02254 0,.03125-.06294.19863-.13944.40303-.21875.59375-.00518.01244-.026.01884-.03125.03125-.00359.00857.00362.02269 0,.03125-.08855.20697-.20578.39723-.3125.59375-.00442.00821.00445.02306 0,.03125-.10768.19657-.25017.37757-.375.5625-.00485.00725.00488.02402 0,.03125-.12561.18468-.26456.35936-.40625.53125-.00461.00562.00462.02564 0,.03125-.14271.172-.31098.31077-.46875.46875-.28498.28535-.57708.57796-.90625.8125l-.15625.09375c-.38377.25956-.78722.47372-1.21875.65625-.1528.0635-.31078.13431-.46875.1875l-.09375.03125-.09375.03125c-.1608.0494-.33455.08661-.5.125-.24437.05673-.49677.09392-.75.125-.1443.01769-.29063.02207-.4375.03125-.07181.00441-.14638.02894-.21875.03125h-.25c-.24902-.00147-.50748-.00525-.75-.03125-.23243-.02392-.46207-.07963-.6875-.125h-.03125c-.22485-.04624-.4395-.08971-.65625-.15625h-.03125l-.34375-.125-.25-.09375c-.01242-.00513-.01886-.02605-.03125-.03125h-.03125c-.20739-.08777-.39677-.20651-.59375-.3125h-.03125c-.197-.10699-.37709-.25082-.5625-.375h-.03125c-.18515-.12498-.35886-.26515-.53125-.40625h-.03125c-.17246-.14217-.31027-.31148-.46875-.46875-.23952-.23921-.48341-.47929-.6875-.75-.03905-.0518-.08733-.10338-.125-.15625-.03372-.04823-.06118-.10716-.09375-.15625-.35285-.5217-.6365-1.08073-.84375-1.6875l-.03125-.09375c-.03705-.11363-.06229-.22772-.09375-.34375-.03851-.14298-.06384-.2911-.09375-.4375-.03337-.16374-.07173-.33241-.09375-.5-.00134-.01022.0013-.02102 0-.03125s.00124-.02108 0-.03125c-.01753-.14283-.02224-.29219-.03125-.4375-.00462-.07389-.02883-.14426-.03125-.21875v-.21875c-3e-005-.01035-2e-005-.02089 0-.03125 .00147-.24902.00525-.50748.03125-.75 .02392-.23221.07964-.46248.125-.6875 .00209-.01016-.00213-.02111 0-.03125 .04624-.22444.08971-.44006.15625-.65625 .00293-.0094-.00297-.02186 0-.03125 .06347-.20311.13824-.39889.21875-.59375 .00513-.01247.02605-.01882.03125-.03125 .00366-.00864-.00369-.02263 0-.03125 .08776-.20668.20651-.39758.3125-.59375 .00418-.0077-.00421-.02357 0-.03125 .10699-.1962.25082-.37797.375-.5625 .00474-.00702-.00476-.02425 0-.03125 .12498-.18427.26515-.35978.40625-.53125 .00489-.00593-.00491-.02533 0-.03125 .14217-.17154.31148-.31122.46875-.46875 .28498-.28535.57708-.57796.90625-.8125l.15625-.09375c.5217-.35285 1.08073-.6365 1.6875-.84375l.09375-.03125c.11363-.03705.22772-.06229.34375-.09375 .14298-.03851.2911-.06384.4375-.09375 .23484-.04786.47617-.10067.71875-.125 .16588-.01673.33092-.02576.5-.03125zm-51.84375,4.28125c4.38664.10376 7.85133,1.13065 7.84375,2.40625s-3.50356,2.28165-7.90625,2.375c-.02133-.6126-.0625-1.22597-.0625-1.84375 0-.98561.07097-1.96528.125-2.9375zm37.6875.125c-.17196.89407-.2484,1.83752-.25,2.78125-.00083.49565.04708.98559.09375,1.46875 .00101.01041-.00103.02085 0,.03125 .00307.03085-.00326.06296 0,.09375 .00441.04164-.00479.08347 0,.125-3.09528-.35772-5.27523-1.20518-5.28125-2.21875-.00612-1.03301 2.25218-1.92692 5.4375-2.28125zm66.5625.9375c.00111.03137-.00106.06237 0,.09375l.03125,1.78125c0,.97507-.04093,1.94435-.09375,2.90625-4.40158-.09949-7.8826-1.1276-7.875-2.40625s3.51994-2.2859 7.9375-2.375zm-37.625.15625c3.09529.3577 5.27523,1.20518 5.28125,2.21875 .00613,1.03299-2.25218,1.92692-5.4375,2.28125 .17197-.89409.2484-1.83752.25-2.78125 .00028-.16624-.02641-.33505-.03125-.5-.00867-.29508-.03644-.58458-.0625-.875-.00656-.07308.00771-.14599 0-.21875-.00441-.04164.00479-.08347 0-.125zm-56.34375,3.96875h9.21875 .25 9.21875l6.375,2.375h2.84375c.11383.3455.26817.66657.40625,1 .00373.00902-.00375.02224 0,.03125s-.0038.0223 0,.03125c.13068.31212.28642.63695.4375.9375 .14778.28911.30267.56623.46875.84375 .02394.0407.03818.08456.0625.125 .04674.07643.10815.14326.15625.21875 .12073.19238.21449.37635.34375.5625l.1875.25c.34252.4719.72993.91722 1.125,1.34375 .10694.11417.23323.20182.34375.3125 .00526.00527-.00527.02599 0,.03125 1.32812,1.34288 2.89009,2.44208 4.65625,3.1875v3.21875l2.375,6.375v9.21875 .25 9.21875l-2.34375,6.28125-2.96875,3.40625c-22.20024-3.71326-39.66193-21.44944-42.96875-43.78125l3.5-3.0625h-.0625l6.375-2.375zm64.90625,1.0625h9.21875 .25 9.21875l6.28125,2.34375 3.40625,3c-3.71228,22.20816-21.43398,39.67617-43.78125,42.96875l-3.0625-3.53125v.0625l-2.375-6.375v-9.21875-.25-9.21875l2.375-6.375v-2.84375l.0625-.03125c.32296-.10809.62516-.24566.9375-.375h.03125c.35117-.14624.72599-.29678 1.0625-.46875 .27979-.1454.54371-.30614.8125-.46875l.15625-.09375c.23019-.14323.46613-.28205.6875-.4375 .39155-.27189.76289-.59848 1.125-.90625 .1587-.13639.31609-.26326.46875-.40625 .1119-.10364.20393-.23669.3125-.34375 .0055-.00548.02576.00549.03125,0 1.34288-1.32812 2.44208-2.89009 3.1875-4.65625h3.21875l6.375-2.375zm-25.90625,11.0625c.8941.17197 1.83752.2484 2.78125.25 .48503.00082.96444-.04914 1.4375-.09375h.0625 .09375 .125c-.35769,3.09529-1.20518,5.27523-2.21875,5.28125-1.03298.00613-1.92692-2.25218-2.28125-5.4375zm2.28125,29.84375c1.28165.0076 2.2859,3.51994 2.375,7.9375-.61253.0213-1.22604.03125-1.84375.03125-.9961,0-1.95508-.03864-2.9375-.09375 .0995-4.40158 1.1276-7.8826 2.40625-7.875z" fill="url(#a)" stroke="#999" stroke-width=".5"/>
 </g>
</svg>
