<?xml version="1.0" encoding="UTF-8"?>
<svg viewBox="0 0 135 135" xmlns="http://www.w3.org/2000/svg">
 <g transform="translate(-307.5 -464.86)" fill-rule="evenodd">
  <path d="m395.32 473.47c-28.373 2.4826-66.238 3.1539-70.984 10.578-0.78053 3.7134 35.539 16.646 35.098 23-0.78491 11.32-57.017 25.313-50.411 24.75 20.851-1.7762 68.24-17.111 67.61-25.007-0.58929-7.391-31.249-18.42-32.938-20.5-3.6457-4.4925 49.578-2.8704 49.577-2.8677" fill="#900"/>
  <path d="m399.81 591.65h-24.686l-17.822-54.658c21.952-9.8182 37.984-24.054 39.152-50.967-3.6586-0.18474-6.0777-2.5014-6.0714-6.5625 0-4.1449 1.508-6.2512 6.6557-6.236h1.4782v63.7c-6.8321 0-10.428 6.0425-10.428 12.063s3.3632 13.812 10.428 13.812h2.6033c6.7291 0 10.386-6.8064 10.388-13.437 0.00147-6.2979-3.2945-12.438-10.388-12.438v-63.7h1.6794c8.8711 0 8.8025 12.639 0 12.639 1.5524 26.702 21.25 45.794 39.717 51.127l-17.797 54.658h-24.909z" fill="#069"/>
 </g>
</svg>
