<?xml version="1.0" encoding="UTF-8"?>
<svg width="1955.3" height="1955.4" version="1.1" viewBox="0 0 1955.3435 1955.3562" xml:space="preserve" xmlns="http://www.w3.org/2000/svg"><defs><clipPath id="a"><path d="m0 1600h2560v-1600h-2560v1600z"/></clipPath></defs><g transform="matrix(1.25 0 0 -1.25 -621.7 1975.8)"><g transform="translate(1279.5,1577)"><path d="m0 0v-1557" fill="none" stroke="#000" stroke-miterlimit="10" stroke-width="3"/></g><g transform="translate(1668.8 1472.7)"><path d="m0 0-778.5-1348.4" fill="none" stroke="#000" stroke-miterlimit="10" stroke-width="3"/></g><g transform="translate(1953.7 1187.8)"><path d="m0 0-1348.4-778.5" fill="none" stroke="#000" stroke-miterlimit="10" stroke-width="3"/></g><g transform="translate(2058,798.5)"><path d="m0 0h-1557" fill="none" stroke="#000" stroke-miterlimit="10" stroke-width="3"/></g><g transform="translate(1953.7 409.25)"><path d="m0 0-1348.4 778.5" fill="none" stroke="#000" stroke-miterlimit="10" stroke-width="3"/></g><g transform="translate(1668.8 124.3)"><path d="m0 0-778.5 1348.4" fill="none" stroke="#000" stroke-miterlimit="10" stroke-width="3"/></g><g transform="translate(1279.5,20)"><path d="m0 0v1557" fill="none" stroke="#000" stroke-miterlimit="10" stroke-width="3"/></g><g transform="translate(890.25 124.3)"><path d="m0 0 778.5 1348.4" fill="none" stroke="#000" stroke-miterlimit="10" stroke-width="3"/></g><g transform="translate(605.3 409.25)"><path d="m0 0 1348.4 778.5" fill="none" stroke="#000" stroke-miterlimit="10" stroke-width="3"/></g><g transform="translate(501,798.5)"><path d="m0 0h1557" fill="none" stroke="#000" stroke-miterlimit="10" stroke-width="3"/></g><g transform="translate(605.3 1187.8)"><path d="m0 0 1348.4-778.5" fill="none" stroke="#000" stroke-miterlimit="10" stroke-width="3"/></g><g transform="translate(890.25 1472.7)"><path d="m0 0 778.5-1348.4" fill="none" stroke="#000" stroke-miterlimit="10" stroke-width="3"/></g><g clip-path="url(#a)"><g transform="translate(889.5,1472)"><path d="m0 0c162.43-28.329 292.38 6.762 390 105v-1557" fill="none" stroke="#000" stroke-miterlimit="10" stroke-width="3"/></g><g transform="translate(605 1186.8)"><path d="m0 0c154.83 56.683 249.83 152.05 285.25 285.93l778.5-1348.4" fill="none" stroke="#000" stroke-miterlimit="10" stroke-width="3"/></g><g transform="translate(501.22 797.5)"><path d="m0 0c105.75 126.51 140.34 256.59 104.07 390.25l1348.4-778.5" fill="none" stroke="#000" stroke-miterlimit="10" stroke-width="3"/></g><g transform="translate(606 408.5)"><path d="m0 0c28.329 162.43-6.767 292-105 390h1557" fill="none" stroke="#000" stroke-miterlimit="10" stroke-width="3"/></g><g transform="translate(891.22 124)"><path d="m0 0c-56.683 154.83-151.86 249.5-285.94 285.25l1348.4 778.5" fill="none" stroke="#000" stroke-miterlimit="10" stroke-width="3"/></g><g transform="translate(1280.5 20.223)"><path d="m0 0c-126.51 105.75-256.26 140.14-390.25 104.06l778.5 1348.4" fill="none" stroke="#000" stroke-miterlimit="10" stroke-width="3"/></g><g transform="translate(1669.5 124.99)"><path d="m0 0c-162.43 28.329-292-6.772-390-105.01v1557" fill="none" stroke="#000" stroke-miterlimit="10" stroke-width="3"/></g><g transform="translate(1954 410.22)"><path d="m0 0c-154.83-56.683-249.49-151.86-285.24-285.94l-778.51 1348.4" fill="none" stroke="#000" stroke-miterlimit="10" stroke-width="3"/></g><g transform="translate(2057.8 799.49)"><path d="m0 0c-105.75-126.51-140.14-256.26-104.06-390.26l-1348.4 778.51" fill="none" stroke="#000" stroke-miterlimit="10" stroke-width="3"/></g><g transform="translate(1953 1188.5)"><path d="m0 0c-28.329-162.43 6.767-292 105-390h-1557" fill="none" stroke="#000" stroke-miterlimit="10" stroke-width="3"/></g><g transform="translate(1667.8 1473)"><path d="m0 0c56.683-154.83 151.86-249.5 285.94-285.25l-1348.4-778.5" fill="none" stroke="#000" stroke-miterlimit="10" stroke-width="3"/></g><g transform="translate(1278.5 1576.8)"><path d="m0 0c126.51-105.75 256.26-140.14 390.25-104.06l-778.5-1348.4" fill="none" stroke="#000" stroke-miterlimit="10" stroke-width="3"/></g><g transform="translate(967.5 1337.4)"><path d="m0 0c129.94-22.663 233.91 5.259 312 83.849v-1245.3" fill="none" stroke="#000" stroke-miterlimit="10" stroke-width="3"/></g><g transform="translate(739.9 1109.1)"><path d="m0 0c123.87 45.346 199.87 121.64 228.2 228.75l622.8-1078.7" fill="none" stroke="#000" stroke-miterlimit="10" stroke-width="3"/></g><g transform="translate(656.88 797.69)"><path d="m0 0c84.599 101.2 112.27 205.28 83.254 312.2l1078.7-622.8" fill="none" stroke="#000" stroke-miterlimit="10" stroke-width="3"/></g><g transform="translate(740.55 486.5)"><path d="m0 0c22.663 129.94-5.264 234-83.854 312h1245.3" fill="none" stroke="#000" stroke-miterlimit="10" stroke-width="3"/></g><g transform="translate(968.88 258.9)"><path d="m0 0c-45.346 123.87-121.49 199.6-228.75 228.2l1078.7 622.8" fill="none" stroke="#000" stroke-miterlimit="10" stroke-width="3"/></g><g transform="translate(1280.3 175.88)"><path d="m0 0c-101.2 84.599-205.01 112.11-312.2 83.251l622.8 1078.7" fill="none" stroke="#000" stroke-miterlimit="10" stroke-width="3"/></g><g transform="translate(1591.5 259.54)"><path d="m0 0c-129.94 22.663-233.6-5.268-312-83.859v1245.3" fill="none" stroke="#000" stroke-miterlimit="10" stroke-width="3"/></g><g transform="translate(1819.1 487.88)"><path d="m0 0c-123.87-45.346-199.6-121.49-228.2-228.75l-622.81 1078.7" fill="none" stroke="#000" stroke-miterlimit="10" stroke-width="3"/></g><g transform="translate(1902.1 799.29)"><path d="m0 0c-84.599-101.2-112.11-205.01-83.247-312.2l-1078.7 622.81" fill="none" stroke="#000" stroke-miterlimit="10" stroke-width="3"/></g><g transform="translate(1818.5 1110.5)"><path d="m0 0c-22.663-129.94 5.264-234 83.854-312h-1245.3" fill="none" stroke="#000" stroke-miterlimit="10" stroke-width="3"/></g><g transform="translate(1590.1 1338.1)"><path d="m0 0c45.346-123.87 121.49-199.6 228.75-228.2l-1078.7-622.8" fill="none" stroke="#000" stroke-miterlimit="10" stroke-width="3"/></g><g transform="translate(1278.7 1421.1)"><path d="m0 0c101.2-84.599 205.01-112.11 312.2-83.25l-622.8-1078.7" fill="none" stroke="#000" stroke-miterlimit="10" stroke-width="3"/></g><g transform="translate(1029.9 1229.4)"><path d="m0 0c103.96-18.13 187.13 4.456 249.6 67.328v-996.74" fill="none" stroke="#000" stroke-miterlimit="10" stroke-width="3"/></g><g transform="translate(847.82 1047)"><path d="m0 0c99.094 36.277 159.89 97.311 182.56 183l498.24-862.98" fill="none" stroke="#000" stroke-miterlimit="10" stroke-width="3"/></g><g transform="translate(781.4 797.85)"><path d="m0 0c67.679 80.964 89.815 164.22 66.603 249.76l862.98-498.24" fill="none" stroke="#000" stroke-miterlimit="10" stroke-width="3"/></g><g transform="translate(848.09 548.9)"><path d="m0 0c18.13 103.96-3.961 187.6-66.833 249.6h995.75" fill="none" stroke="#000" stroke-miterlimit="10" stroke-width="3"/></g><g transform="translate(1031 366.81)"><path d="m0 0c-36.277 99.094-97.191 159.68-183 182.56l862.98 498.24" fill="none" stroke="#000" stroke-miterlimit="10" stroke-width="3"/></g><g transform="translate(1280.1 300.4)"><path d="m0 0c-80.964 67.679-164.01 89.689-249.76 66.6l498.24 862.98" fill="none" stroke="#000" stroke-miterlimit="10" stroke-width="3"/></g><g transform="translate(1529.1 367.08)"><path d="m0 0c-103.96 18.13-186.88-3.966-249.6-66.838v995.76" fill="none" stroke="#000" stroke-miterlimit="10" stroke-width="3"/></g><g transform="translate(1711.2 550)"><path d="m0 0c-99.094-36.277-159.68-97.193-182.56-183l-498.25 862.99" fill="none" stroke="#000" stroke-miterlimit="10" stroke-width="3"/></g><g transform="translate(1777.6 799.13)"><path d="m0 0c-67.679-80.964-89.687-164.01-66.598-249.76l-862.99 498.25" fill="none" stroke="#000" stroke-miterlimit="10" stroke-width="3"/></g><g transform="translate(1710.4 1048.1)"><path d="m0 0c-18.13-103.96 4.461-187.6 67.333-249.6h-996.75" fill="none" stroke="#000" stroke-miterlimit="10" stroke-width="3"/></g><g transform="translate(1528 1230.2)"><path d="m0 0c36.277-99.094 97.191-159.68 183-182.56l-862.98-498.24" fill="none" stroke="#000" stroke-miterlimit="10" stroke-width="3"/></g><g transform="translate(1278.9 1296.6)"><path d="m0 0c80.964-67.679 164.01-89.689 249.76-66.6l-498.24-862.98" fill="none" stroke="#000" stroke-miterlimit="10" stroke-width="3"/></g><g transform="translate(1079.8 1143.4)"><path d="m0 0c83.165-14.504 149.7 3.414 199.68 53.712v-797.09" fill="none" stroke="#000" stroke-miterlimit="10" stroke-width="3"/></g><g transform="translate(934.15 997.29)"><path d="m0 0c79.275 29.022 127.91 77.849 146.05 146.4l398.59-690.38" fill="none" stroke="#000" stroke-miterlimit="10" stroke-width="3"/></g><g transform="translate(881.02 797.98)"><path d="m0 0c54.144 64.771 71.852 131.38 53.282 199.81l690.38-398.59" fill="none" stroke="#000" stroke-miterlimit="10" stroke-width="3"/></g><g transform="translate(934.12 598.82)"><path d="m0 0c14.504 83.165-2.919 149.68-53.216 199.68h796.1" fill="none" stroke="#000" stroke-miterlimit="10" stroke-width="3"/></g><g transform="translate(1080.7 453.15)"><path d="m0 0c-29.022 79.275-77.753 127.74-146.4 146.05l690.39 398.59" fill="none" stroke="#000" stroke-miterlimit="10" stroke-width="3"/></g><g transform="translate(1280 400.02)"><path d="m0 0c-64.771 54.144-131.21 71.751-199.81 53.28l398.59 690.39" fill="none" stroke="#000" stroke-miterlimit="10" stroke-width="3"/></g><g transform="translate(1479.2 453.11)"><path d="m0 0c-83.165 14.504-149.5-2.924-199.68-53.221v796.11" fill="none" stroke="#000" stroke-miterlimit="10" stroke-width="3"/></g><g transform="translate(1624.8 599.7)"><path d="m0 0c-79.275-29.021-127.74-77.755-146.05-146.4l-398.6 690.39" fill="none" stroke="#000" stroke-miterlimit="10" stroke-width="3"/></g><g transform="translate(1678 799)"><path d="m0 0c-54.144-64.771-71.749-131.21-53.278-199.81l-690.39 398.6" fill="none" stroke="#000" stroke-miterlimit="10" stroke-width="3"/></g><g transform="translate(1624.4 998.18)"><path d="m0 0c-14.504-83.165 3.419-149.68 53.716-199.68h-797.1" fill="none" stroke="#000" stroke-miterlimit="10" stroke-width="3"/></g><g transform="translate(1478.3 1143.8)"><path d="m0 0c29.021-79.275 77.752-127.74 146.4-146.05l-690.39-398.59" fill="none" stroke="#000" stroke-miterlimit="10" stroke-width="3"/></g><g transform="translate(1279 1197)"><path d="m0 0c64.771-54.144 131.21-71.752 199.81-53.28l-398.59-690.39" fill="none" stroke="#000" stroke-miterlimit="10" stroke-width="3"/></g><g transform="translate(1119.8 1074.5)"><path d="m0 0c66.532-11.603 119.76 2.58 159.74 42.818v-637.37" fill="none" stroke="#000" stroke-miterlimit="10" stroke-width="3"/></g><g transform="translate(1003.2 957.53)"><path d="m0 0c63.42 23.217 102.33 62.279 116.84 117.12l318.87-552.3" fill="none" stroke="#000" stroke-miterlimit="10" stroke-width="3"/></g><g transform="translate(960.72 798.08)"><path d="m0 0c43.315 51.817 57.482 105.1 42.626 159.85l552.3-318.87" fill="none" stroke="#000" stroke-miterlimit="10" stroke-width="3"/></g><g transform="translate(1002.9 638.76)"><path d="m0 0c11.603 66.532-2.085 119.74-42.323 159.74h636.38" fill="none" stroke="#000" stroke-miterlimit="10" stroke-width="3"/></g><g transform="translate(1120.5 522.22)"><path d="m0 0c-23.217 63.42-62.202 102.19-117.12 116.84l552.31 318.88" fill="none" stroke="#000" stroke-miterlimit="10" stroke-width="3"/></g><g transform="translate(1279.9 479.71)"><path d="m0 0c-51.817 43.315-104.96 57.401-159.85 42.624l318.88 552.31" fill="none" stroke="#000" stroke-miterlimit="10" stroke-width="3"/></g><g transform="translate(1439.2 521.94)"><path d="m0 0c-66.532 11.603-119.6-2.09-159.74-42.328v636.39" fill="none" stroke="#000" stroke-miterlimit="10" stroke-width="3"/></g><g transform="translate(1555.8 639.46)"><path d="m0 0c-63.42-23.217-102.19-62.204-116.84-117.12l-318.88 552.31" fill="none" stroke="#000" stroke-miterlimit="10" stroke-width="3"/></g><g transform="translate(1598.3 798.9)"><path d="m0 0c-43.315-51.817-57.399-104.97-42.622-159.85l-552.31 318.88" fill="none" stroke="#000" stroke-miterlimit="10" stroke-width="3"/></g><g transform="translate(1555.6 958.24)"><path d="m0 0c-11.603-66.532 2.585-119.74 42.823-159.74h-637.38" fill="none" stroke="#000" stroke-miterlimit="10" stroke-width="3"/></g><g transform="translate(1438.5 1074.8)"><path d="m0 0c23.217-63.42 62.202-102.19 117.12-116.84l-552.31-318.88" fill="none" stroke="#000" stroke-miterlimit="10" stroke-width="3"/></g><g transform="translate(1279.1 1117.3)"><path d="m0 0c51.817-43.315 104.96-57.401 159.85-42.624l-318.88-552.31" fill="none" stroke="#000" stroke-miterlimit="10" stroke-width="3"/></g><g transform="translate(1151.7 1019.5)"><path d="m0 0c53.226-9.283 95.809 1.913 127.8 34.104v-509.59" fill="none" stroke="#000" stroke-miterlimit="10" stroke-width="3"/></g><g transform="translate(1058.5 925.72)"><path d="m0 0c50.736 18.574 81.865 49.823 93.471 93.694l255.1-441.84" fill="none" stroke="#000" stroke-miterlimit="10" stroke-width="3"/></g><g transform="translate(1024.5 798.16)"><path d="m0 0c34.652 41.453 45.985 84.081 34.101 127.88l441.84-255.1" fill="none" stroke="#000" stroke-miterlimit="10" stroke-width="3"/></g><g transform="translate(1058 670.7)"><path d="m0 0c9.283 53.226-1.418 95.795-33.609 127.8h508.6" fill="none" stroke="#000" stroke-miterlimit="10" stroke-width="3"/></g><g transform="translate(1152.3 577.47)"><path d="m0 0c-18.574 50.736-49.762 81.755-93.696 93.47l441.85 255.1" fill="none" stroke="#000" stroke-miterlimit="10" stroke-width="3"/></g><g transform="translate(1279.8 543.47)"><path d="m0 0c-41.453 34.652-83.972 45.921-127.88 34.099l255.1 441.85" fill="none" stroke="#000" stroke-miterlimit="10" stroke-width="3"/></g><g transform="translate(1407.3 577)"><path d="m0 0c-53.226 9.283-95.682-1.423-127.8-33.613v508.61" fill="none" stroke="#000" stroke-miterlimit="10" stroke-width="3"/></g><g transform="translate(1500.5 671.26)"><path d="m0 0c-50.736-18.574-81.754-49.763-93.469-93.697l-255.1 441.85" fill="none" stroke="#000" stroke-miterlimit="10" stroke-width="3"/></g><g transform="translate(1534.5 798.82)"><path d="m0 0c-34.652-41.453-45.92-83.973-34.098-127.88l-441.85 255.1" fill="none" stroke="#000" stroke-miterlimit="10" stroke-width="3"/></g><g transform="translate(1500.5 926.3)"><path d="m0 0c-9.283-53.226 1.918-95.795 34.109-127.8h-509.6" fill="none" stroke="#000" stroke-miterlimit="10" stroke-width="3"/></g><g transform="translate(1406.7 1019.5)"><path d="m0 0c18.574-50.736 49.762-81.755 93.696-93.47l-441.85-255.1" fill="none" stroke="#000" stroke-miterlimit="10" stroke-width="3"/></g><g transform="translate(1279.2 1053.5)"><path d="m0 0c41.453-34.652 83.972-45.921 127.88-34.099l-255.1-441.85" fill="none" stroke="#000" stroke-miterlimit="10" stroke-width="3"/></g><g transform="translate(1177.3 975.34)"><path d="m0 0c42.581-7.426 76.647 1.479 102.24 27.232v-407.57" fill="none" stroke="#000" stroke-miterlimit="10" stroke-width="3"/></g><g transform="translate(1102.7 900.27)"><path d="m0 0c40.589 14.859 65.492 39.859 74.777 74.956l204.08-353.48" fill="none" stroke="#000" stroke-miterlimit="10" stroke-width="3"/></g><g transform="translate(1075.5 798.23)"><path d="m0 0c27.721 33.163 36.788 67.265 27.281 102.3l353.48-204.08" fill="none" stroke="#000" stroke-miterlimit="10" stroke-width="3"/></g><g transform="translate(1102.2 696.26)"><path d="m0 0c7.426 42.581-0.984 76.236-26.737 102.24h406.58" fill="none" stroke="#000" stroke-miterlimit="10" stroke-width="3"/></g><g transform="translate(1177.7 621.68)"><path d="m0 0c-14.859 40.589-39.809 65.404-74.957 74.776l353.48 204.08" fill="none" stroke="#000" stroke-miterlimit="10" stroke-width="3"/></g><g transform="translate(1279.8 594.47)"><path d="m0 0c-33.163 27.721-67.178 36.737-102.3 27.28l204.08 353.48" fill="none" stroke="#000" stroke-miterlimit="10" stroke-width="3"/></g><g transform="translate(1381.7 621.15)"><path d="m0 0c-42.581 7.426-76.546-0.989-102.24-26.742v406.59" fill="none" stroke="#000" stroke-miterlimit="10" stroke-width="3"/></g><g transform="translate(1456.3 696.71)"><path d="m0 0c-40.589-14.859-65.403-39.81-74.775-74.958l-204.08 353.48" fill="none" stroke="#000" stroke-miterlimit="10" stroke-width="3"/></g><g transform="translate(1483.5 798.75)"><path d="m0 0c-27.721-33.163-36.736-67.178-27.278-102.3l-353.48 204.08" fill="none" stroke="#000" stroke-miterlimit="10" stroke-width="3"/></g><g transform="translate(1456.3 900.74)"><path d="m0 0c-7.426-42.581 1.484-76.236 27.237-102.24h-407.58" fill="none" stroke="#000" stroke-miterlimit="10" stroke-width="3"/></g><g transform="translate(1381.3 975.31)"><path d="m0 0c14.859-40.589 39.809-65.404 74.957-74.776l-353.48-204.08" fill="none" stroke="#000" stroke-miterlimit="10" stroke-width="3"/></g><g transform="translate(1279.2 1002.5)"><path d="m0 0c33.163-27.721 67.178-36.737 102.3-27.279l-204.08-353.48" fill="none" stroke="#000" stroke-miterlimit="10" stroke-width="3"/></g><g transform="translate(1197.7 940.12)"><path d="m0 0c34.064-5.941 61.318 1.033 81.789 21.635v-325.76" fill="none" stroke="#000" stroke-miterlimit="10" stroke-width="3"/></g><g transform="translate(1138 879.92)"><path d="m0 0c32.471 11.887 52.394 31.887 59.821 59.964l163.26-282.78" fill="none" stroke="#000" stroke-miterlimit="10" stroke-width="3"/></g><g transform="translate(1116.3 798.28)"><path d="m0 0c22.177 26.53 29.431 53.812 21.824 81.841l282.78-163.26" fill="none" stroke="#000" stroke-miterlimit="10" stroke-width="3"/></g><g transform="translate(1137.4 716.71)"><path d="m0 0c5.941 34.064-0.537 60.789-21.139 81.789h324.76" fill="none" stroke="#000" stroke-miterlimit="10" stroke-width="3"/></g><g transform="translate(1198.1 657.04)"><path d="m0 0c-11.887 32.471-31.847 52.323-59.965 59.821l282.78 163.26" fill="none" stroke="#000" stroke-miterlimit="10" stroke-width="3"/></g><g transform="translate(1279.7 635.28)"><path d="m0 0c-26.53 22.177-53.742 29.389-81.842 21.824l163.26 282.78" fill="none" stroke="#000" stroke-miterlimit="10" stroke-width="3"/></g><g transform="translate(1361.3 656.37)"><path d="m0 0c-34.064 5.941-61.237-0.542-81.789-21.144v324.78" fill="none" stroke="#000" stroke-miterlimit="10" stroke-width="3"/></g><g transform="translate(1421 717.06)"><path d="m0 0c-32.471-11.887-52.323-31.848-59.82-59.966l-163.27 282.78" fill="none" stroke="#000" stroke-miterlimit="10" stroke-width="3"/></g><g transform="translate(1442.7 798.7)"><path d="m0 0c-22.177-26.53-29.388-53.743-21.823-81.842l-282.78 163.26" fill="none" stroke="#000" stroke-miterlimit="10" stroke-width="3"/></g><g transform="translate(1421.1 880.29)"><path d="m0 0c-5.941-34.064 1.037-60.789 21.639-81.789h-325.76" fill="none" stroke="#000" stroke-miterlimit="10" stroke-width="3"/></g><g transform="translate(1360.9 939.95)"><path d="m0 0c11.887-32.471 31.847-52.323 59.965-59.821l-282.78-163.26" fill="none" stroke="#000" stroke-miterlimit="10" stroke-width="3"/></g><g transform="translate(1279.3 961.71)"><path d="m0 0c26.53-22.177 53.742-29.389 81.842-21.824l-163.26-282.78" fill="none" stroke="#000" stroke-miterlimit="10" stroke-width="3"/></g><g transform="translate(1214.1 911.55)"><path d="m0 0c27.252-4.753 49.054 1.075 65.431 17.557v-261.1" fill="none" stroke="#000" stroke-miterlimit="10" stroke-width="3"/></g><g transform="translate(1166.3 863.63)"><path d="m0 0c25.977 9.51 41.915 25.51 47.857 47.971l130.61-226.22" fill="none" stroke="#000" stroke-miterlimit="10" stroke-width="3"/></g><g transform="translate(1148.9 798.32)"><path d="m0 0c17.742 21.224 23.545 43.049 17.46 65.473l226.22-130.61" fill="none" stroke="#000" stroke-miterlimit="10" stroke-width="3"/></g><g transform="translate(1165.9 733.07)"><path d="m0 0c4.753 27.252-0.58 48.431-17.062 65.431h260.11" fill="none" stroke="#000" stroke-miterlimit="10" stroke-width="3"/></g><g transform="translate(1214.4 685.33)"><path d="m0 0c-9.51 25.977-25.478 41.858-47.972 47.857l226.22 130.61" fill="none" stroke="#000" stroke-miterlimit="10" stroke-width="3"/></g><g transform="translate(1279.7 667.92)"><path d="m0 0c-21.224 17.742-42.994 23.512-65.473 17.459l130.61 226.23" fill="none" stroke="#000" stroke-miterlimit="10" stroke-width="3"/></g><g transform="translate(1344.9 684.94)"><path d="m0 0c-27.252 4.753-48.99-0.585-65.431-17.066v260.12" fill="none" stroke="#000" stroke-miterlimit="10" stroke-width="3"/></g><g transform="translate(1392.7 733.35)"><path d="m0 0c-25.977-9.51-41.858-25.479-47.856-47.973l-130.61 226.23" fill="none" stroke="#000" stroke-miterlimit="10" stroke-width="3"/></g><g transform="translate(1410.1 798.66)"><path d="m0 0c-17.742-21.224-23.511-42.994-17.458-65.474l-226.23 130.61" fill="none" stroke="#000" stroke-miterlimit="10" stroke-width="3"/></g><g transform="translate(1392.6 863.93)"><path d="m0 0c-4.753-27.252 1.08-48.431 17.562-65.431h-261.11" fill="none" stroke="#000" stroke-miterlimit="10" stroke-width="3"/></g><g transform="translate(1344.6 911.65)"><path d="m0 0c9.51-25.977 25.478-41.858 47.972-47.857l-226.22-130.61" fill="none" stroke="#000" stroke-miterlimit="10" stroke-width="3"/></g><g transform="translate(1279.3 929.06)"><path d="m0 0c21.224-17.742 42.994-23.512 65.473-17.459l-130.61-226.23" fill="none" stroke="#000" stroke-miterlimit="10" stroke-width="3"/></g><g transform="translate(1227.2 888.89)"><path d="m0 0c21.801-3.802 39.243 0.909 52.345 14.094v-208.98" fill="none" stroke="#000" stroke-miterlimit="10" stroke-width="3"/></g><g transform="translate(1189 850.6)"><path d="m0 0c20.781 7.608 33.532 20.408 38.286 38.377l104.49-180.98" fill="none" stroke="#000" stroke-miterlimit="10" stroke-width="3"/></g><g transform="translate(1175 798.36)"><path d="m0 0c14.193 16.979 18.836 34.44 13.968 52.378l180.98-104.49" fill="none" stroke="#000" stroke-miterlimit="10" stroke-width="3"/></g><g transform="translate(1188.6 746.16)"><path d="m0 0c3.802 21.801-0.414 38.345-13.599 52.345h207.99" fill="none" stroke="#000" stroke-miterlimit="10" stroke-width="3"/></g><g transform="translate(1227.4 707.96)"><path d="m0 0c-7.608 20.781-20.382 33.487-38.378 38.285l180.98 104.49" fill="none" stroke="#000" stroke-miterlimit="10" stroke-width="3"/></g><g transform="translate(1279.6 694.03)"><path d="m0 0c-16.979 14.193-34.395 18.809-52.379 13.967l104.49 180.98" fill="none" stroke="#000" stroke-miterlimit="10" stroke-width="3"/></g><g transform="translate(1331.8 707.6)"><path d="m0 0c-21.801 3.802-39.192-0.419-52.345-13.604v208" fill="none" stroke="#000" stroke-miterlimit="10" stroke-width="3"/></g><g transform="translate(1370 746.38)"><path d="m0 0c-20.781-7.608-33.486-20.383-38.285-38.378l-104.49 180.98" fill="none" stroke="#000" stroke-miterlimit="10" stroke-width="3"/></g><g transform="translate(1384 798.62)"><path d="m0 0c-14.193-16.979-18.809-34.395-13.967-52.379l-180.98 104.49" fill="none" stroke="#000" stroke-miterlimit="10" stroke-width="3"/></g><g transform="translate(1369.9 850.84)"><path d="m0 0c-3.802-21.801 0.914-38.345 14.099-52.345h-208.99" fill="none" stroke="#000" stroke-miterlimit="10" stroke-width="3"/></g><g transform="translate(1331.6 889.02)"><path d="m0 0c7.608-20.781 20.382-33.487 38.378-38.285l-180.98-104.49" fill="none" stroke="#000" stroke-miterlimit="10" stroke-width="3"/></g><g transform="translate(1279.4 902.95)"><path d="m0 0c16.979-14.193 34.395-18.809 52.379-13.967l-104.49-180.98" fill="none" stroke="#000" stroke-miterlimit="10" stroke-width="3"/></g><g transform="translate(1237.6 870.86)"><path d="m0 0c17.441-3.042 31.395 0.676 41.876 11.225v-167.08" fill="none" stroke="#000" stroke-miterlimit="10" stroke-width="3"/></g><g transform="translate(1207.1 840.18)"><path d="m0 0c16.625 6.086 26.826 16.326 30.629 30.702l83.59-144.78" fill="none" stroke="#000" stroke-miterlimit="10" stroke-width="3"/></g><g transform="translate(1195.9 798.38)"><path d="m0 0c11.355 13.583 15.068 27.552 11.174 41.903l144.78-83.591" fill="none" stroke="#000" stroke-miterlimit="10" stroke-width="3"/></g><g transform="translate(1206.6 756.62)"><path d="m0 0c3.042 17.441-0.181 30.876-10.729 41.876h166.09" fill="none" stroke="#000" stroke-miterlimit="10" stroke-width="3"/></g><g transform="translate(1237.8 726.07)"><path d="m0 0c-6.086 16.625-16.306 26.789-30.702 30.628l144.78 83.592" fill="none" stroke="#000" stroke-miterlimit="10" stroke-width="3"/></g><g transform="translate(1279.6 714.92)"><path d="m0 0c-13.583 11.355-27.516 15.047-41.903 11.174l83.591 144.78" fill="none" stroke="#000" stroke-miterlimit="10" stroke-width="3"/></g><g transform="translate(1321.4 725.63)"><path d="m0 0c-17.441 3.042-31.353-0.186-41.876-10.734v166.1" fill="none" stroke="#000" stroke-miterlimit="10" stroke-width="3"/></g><g transform="translate(1351.9 756.8)"><path d="m0 0c-16.625-6.086-26.789-16.306-30.628-30.703l-83.592 144.79" fill="none" stroke="#000" stroke-miterlimit="10" stroke-width="3"/></g><g transform="translate(1363.1 798.6)"><path d="m0 0c-11.355-13.583-15.047-27.516-11.173-41.903l-144.79 83.592" fill="none" stroke="#000" stroke-miterlimit="10" stroke-width="3"/></g><g transform="translate(1351.9 840.38)"><path d="m0 0c-3.042-17.441 0.681-30.876 11.229-41.876h-167.09" fill="none" stroke="#000" stroke-miterlimit="10" stroke-width="3"/></g><g transform="translate(1321.2 870.92)"><path d="m0 0c6.086-16.625 16.306-26.789 30.702-30.628l-144.78-83.592" fill="none" stroke="#000" stroke-miterlimit="10" stroke-width="3"/></g><g transform="translate(1279.4 882.06)"><path d="m0 0c13.583-11.355 27.516-15.047 41.903-11.174l-83.591-144.78" fill="none" stroke="#000" stroke-miterlimit="10" stroke-width="3"/></g><g transform="translate(1246 856.54)"><path d="m0 0c13.953-2.433 25.116 0.39 33.501 8.829v-133.36" fill="none" stroke="#000" stroke-miterlimit="10" stroke-width="3"/></g><g transform="translate(1221.6 831.84)"><path d="m0 0c13.3 4.869 21.46 13.061 24.503 24.561l66.872-115.83" fill="none" stroke="#000" stroke-miterlimit="10" stroke-width="3"/></g><g transform="translate(1212.6 798.4)"><path d="m0 0c9.084 10.867 12.055 22.041 8.939 33.522l115.83-66.872" fill="none" stroke="#000" stroke-miterlimit="10" stroke-width="3"/></g><g transform="translate(1221 765)"><path d="m0 0c2.433 13.953 0.105 24.501-8.333 33.501h132.37" fill="none" stroke="#000" stroke-miterlimit="10" stroke-width="3"/></g><g transform="translate(1246.1 740.55)"><path d="m0 0c-4.869 13.3-13.045 21.432-24.562 24.503l115.83 66.873" fill="none" stroke="#000" stroke-miterlimit="10" stroke-width="3"/></g><g transform="translate(1279.6 731.64)"><path d="m0 0c-10.867 9.084-22.013 12.038-33.522 8.939l66.873 115.83" fill="none" stroke="#000" stroke-miterlimit="10" stroke-width="3"/></g><g transform="translate(1313 739.96)"><path d="m0 0c-13.953 2.433-25.083 0.1-33.501-8.338v132.38" fill="none" stroke="#000" stroke-miterlimit="10" stroke-width="3"/></g><g transform="translate(1337.4 765.14)"><path d="m0 0c-13.3-4.869-21.431-13.045-24.502-24.562l-66.874 115.83" fill="none" stroke="#000" stroke-miterlimit="10" stroke-width="3"/></g><g transform="translate(1346.4 798.58)"><path d="m0 0c-9.084-10.867-12.037-22.013-8.938-33.523l-115.83 66.874" fill="none" stroke="#000" stroke-miterlimit="10" stroke-width="3"/></g><g transform="translate(1337.5 832)"><path d="m0 0c-2.433-13.953 0.395-24.501 8.833-33.501h-133.37" fill="none" stroke="#000" stroke-miterlimit="10" stroke-width="3"/></g><g transform="translate(1312.9 856.43)"><path d="m0 0c4.869-13.3 13.045-21.432 24.562-24.503l-115.83-66.873" fill="none" stroke="#000" stroke-miterlimit="10" stroke-width="3"/></g><g transform="translate(1279.4 865.34)"><path d="m0 0c10.867-9.084 22.013-12.038 33.522-8.939l-66.873-115.83" fill="none" stroke="#000" stroke-miterlimit="10" stroke-width="3"/></g><g transform="translate(1252.7 844.78)"><path d="m0 0c11.162-1.947 20.093 0.461 26.801 7.212v-106.99" fill="none" stroke="#000" stroke-miterlimit="10" stroke-width="3"/></g><g transform="translate(1233.1 825.17)"><path d="m0 0c10.64 3.895 17.168 10.449 19.602 19.649l53.498-92.661" fill="none" stroke="#000" stroke-miterlimit="10" stroke-width="3"/></g><g transform="translate(1226 798.42)"><path d="m0 0c7.267 8.693 9.644 17.633 7.151 26.818l92.662-53.498" fill="none" stroke="#000" stroke-miterlimit="10" stroke-width="3"/></g><g transform="translate(1232.7 771.7)"><path d="m0 0c1.947 11.162 0.034 19.801-6.717 26.801h106" fill="none" stroke="#000" stroke-miterlimit="10" stroke-width="3"/></g><g transform="translate(1252.8 752.14)"><path d="m0 0c-3.895 10.64-10.436 17.145-19.649 19.602l92.662 53.498" fill="none" stroke="#000" stroke-miterlimit="10" stroke-width="3"/></g><g transform="translate(1279.6 745.01)"><path d="m0 0c-8.693 7.267-17.61 9.63-26.818 7.151l53.499 92.662" fill="none" stroke="#000" stroke-miterlimit="10" stroke-width="3"/></g><g transform="translate(1306.3 751.71)"><path d="m0 0c-11.162 1.947-20.066 0.029-26.801-6.722v106.01" fill="none" stroke="#000" stroke-miterlimit="10" stroke-width="3"/></g><g transform="translate(1325.9 771.81)"><path d="m0 0c-10.64-3.895-17.145-10.436-19.602-19.65l-53.499 92.663" fill="none" stroke="#000" stroke-miterlimit="10" stroke-width="3"/></g><g transform="translate(1333 798.56)"><path d="m0 0c-7.267-8.693-9.63-17.61-7.151-26.818l-92.662 53.499" fill="none" stroke="#000" stroke-miterlimit="10" stroke-width="3"/></g><g transform="translate(1325.8 825.3)"><path d="m0 0c-1.947-11.162 0.466-19.801 7.217-26.801h-107" fill="none" stroke="#000" stroke-miterlimit="10" stroke-width="3"/></g><g transform="translate(1306.2 844.84)"><path d="m0 0c3.895-10.64 10.436-17.145 19.649-19.602l-92.662-53.499" fill="none" stroke="#000" stroke-miterlimit="10" stroke-width="3"/></g><g transform="translate(1279.4 851.97)"><path d="m0 0c8.693-7.267 17.61-9.63 26.818-7.151l-53.499-92.662" fill="none" stroke="#000" stroke-miterlimit="10" stroke-width="3"/></g><g transform="translate(1258.1 835.67)"><path d="m0 0c8.93-1.557 16.074 0.218 21.44 5.619v-85.29" fill="none" stroke="#000" stroke-miterlimit="10" stroke-width="3"/></g><g transform="translate(1242.4 819.84)"><path d="m0 0c8.512 3.116 13.735 8.359 15.682 15.719l42.798-74.129" fill="none" stroke="#000" stroke-miterlimit="10" stroke-width="3"/></g><g transform="translate(1236.7 798.44)"><path d="m0 0c5.814 6.955 7.715 14.106 5.721 21.454l74.129-42.798" fill="none" stroke="#000" stroke-miterlimit="10" stroke-width="3"/></g><g transform="translate(1241.8 777.06)"><path d="m0 0c1.557 8.93 0.277 15.44-5.124 21.44h84.3" fill="none" stroke="#000" stroke-miterlimit="10" stroke-width="3"/></g><g transform="translate(1258.2 761.41)"><path d="m0 0c-3.116 8.512-8.349 13.716-15.72 15.682l74.13 42.798" fill="none" stroke="#000" stroke-miterlimit="10" stroke-width="3"/></g><g transform="translate(1279.6 755.7)"><path d="m0 0c-6.955 5.814-14.088 7.704-21.454 5.721l42.798 74.13" fill="none" stroke="#000" stroke-miterlimit="10" stroke-width="3"/></g><g transform="translate(1300.9 760.82)"><path d="m0 0c-8.93 1.557-16.053 0.272-21.44-5.128v84.308" fill="none" stroke="#000" stroke-miterlimit="10" stroke-width="3"/></g><g transform="translate(1316.6 777.15)"><path d="m0 0c-8.512-3.116-13.716-8.349-15.682-15.72l-42.799 74.13" fill="none" stroke="#000" stroke-miterlimit="10" stroke-width="3"/></g><g transform="translate(1322.3 798.55)"><path d="m0 0c-5.814-6.955-7.704-14.088-5.721-21.454l-74.13 42.799" fill="none" stroke="#000" stroke-miterlimit="10" stroke-width="3"/></g><g transform="translate(1316.7 819.94)"><path d="m0 0c-1.557-8.93 0.223-15.44 5.624-21.44h-85.3" fill="none" stroke="#000" stroke-miterlimit="10" stroke-width="3"/></g><g transform="translate(1300.8 835.57)"><path d="m0 0c3.116-8.512 8.349-13.716 15.72-15.682l-74.13-42.798" fill="none" stroke="#000" stroke-miterlimit="10" stroke-width="3"/></g><g transform="translate(1279.4 841.28)"><path d="m0 0c6.955-5.814 14.088-7.704 21.454-5.721l-42.798-74.13" fill="none" stroke="#000" stroke-miterlimit="10" stroke-width="3"/></g><g transform="translate(1262.3 827.99)"><path d="m0 0c7.144-1.246 12.859 0.423 17.152 4.744v-68.73" fill="none" stroke="#000" stroke-miterlimit="10" stroke-width="3"/></g><g transform="translate(1249.8 815.57)"><path d="m0 0c6.81 2.493 10.988 6.687 12.545 12.575l34.239-59.303" fill="none" stroke="#000" stroke-miterlimit="10" stroke-width="3"/></g><g transform="translate(1245.3 798.45)"><path d="m0 0c4.651 5.564 6.172 11.285 4.577 17.163l59.303-34.238" fill="none" stroke="#000" stroke-miterlimit="10" stroke-width="3"/></g><g transform="translate(1249.5 781.35)"><path d="m0 0c1.246 7.144 0.072 12.152-4.249 17.152h67.739" fill="none" stroke="#000" stroke-miterlimit="10" stroke-width="3"/></g><g transform="translate(1262.4 768.83)"><path d="m0 0c-2.493 6.81-6.679 10.973-12.576 12.545l59.304 34.239" fill="none" stroke="#000" stroke-miterlimit="10" stroke-width="3"/></g><g transform="translate(1279.5 764.26)"><path d="m0 0c-5.564 4.651-11.271 6.163-17.163 4.577l34.239 59.303" fill="none" stroke="#000" stroke-miterlimit="10" stroke-width="3"/></g><g transform="translate(1296.7 768.5)"><path d="m0 0c-7.144 1.246-12.842 0.067-17.152-4.254v67.749" fill="none" stroke="#000" stroke-miterlimit="10" stroke-width="3"/></g><g transform="translate(1309.2 781.41)"><path d="m0 0c-6.81-2.493-10.973-6.679-12.545-12.576l-34.239 59.304" fill="none" stroke="#000" stroke-miterlimit="10" stroke-width="3"/></g><g transform="translate(1313.7 798.53)"><path d="m0 0c-4.651-5.564-6.163-11.271-4.577-17.164l-59.304 34.24" fill="none" stroke="#000" stroke-miterlimit="10" stroke-width="3"/></g><g transform="translate(1309 815.65)"><path d="m0 0c-1.246-7.144 0.428-12.152 4.749-17.152h-68.739" fill="none" stroke="#000" stroke-miterlimit="10" stroke-width="3"/></g><g transform="translate(1296.6 828.16)"><path d="m0 0c2.493-6.81 6.679-10.973 12.576-12.545l-59.304-34.239" fill="none" stroke="#000" stroke-miterlimit="10" stroke-width="3"/></g><g transform="translate(1279.5 832.72)"><path d="m0 0c5.564-4.651 11.271-6.163 17.163-4.577l-34.239-59.303" fill="none" stroke="#000" stroke-miterlimit="10" stroke-width="3"/></g><g transform="translate(1265.8 822.14)"><path d="m0 0c5.715-0.997 10.287 0.288 13.722 3.744v-54.882" fill="none" stroke="#000" stroke-miterlimit="10" stroke-width="3"/></g><g transform="translate(1255.8 812.15)"><path d="m0 0c5.448 1.994 8.79 5.35 10.036 10.06l27.391-47.442" fill="none" stroke="#000" stroke-miterlimit="10" stroke-width="3"/></g><g transform="translate(1252.1 798.46)"><path d="m0 0c3.721 4.451 4.938 9.028 3.661 13.731l47.443-27.391" fill="none" stroke="#000" stroke-miterlimit="10" stroke-width="3"/></g><g transform="translate(1255.4 784.78)"><path d="m0 0c0.997 5.715 0.207 9.722-3.249 13.722h53.891" fill="none" stroke="#000" stroke-miterlimit="10" stroke-width="3"/></g><g transform="translate(1265.8 774.76)"><path d="m0 0c-1.994 5.448-5.343 8.778-10.061 10.036l47.443 27.391" fill="none" stroke="#000" stroke-miterlimit="10" stroke-width="3"/></g><g transform="translate(1279.5 771.11)"><path d="m0 0c-4.451 3.721-9.016 4.931-13.731 3.661l27.391 47.443" fill="none" stroke="#000" stroke-miterlimit="10" stroke-width="3"/></g><g transform="translate(1293.2 774.35)"><path d="m0 0c-5.715 0.997-10.274 0.203-13.722-3.254v53.901" fill="none" stroke="#000" stroke-miterlimit="10" stroke-width="3"/></g><g transform="translate(1303.2 784.83)"><path d="m0 0c-5.448-1.994-8.778-5.343-10.036-10.061l-27.391 47.444" fill="none" stroke="#000" stroke-miterlimit="10" stroke-width="3"/></g><g transform="translate(1306.9 798.53)"><path d="m0 0c-3.721-4.451-4.931-9.017-3.661-13.731l-47.444 27.392" fill="none" stroke="#000" stroke-miterlimit="10" stroke-width="3"/></g><g transform="translate(1303.1 812.22)"><path d="m0 0c-0.997-5.715 0.293-9.722 3.749-13.722h-54.891" fill="none" stroke="#000" stroke-miterlimit="10" stroke-width="3"/></g><g transform="translate(1293.2 822.22)"><path d="m0 0c1.994-5.448 5.343-8.778 10.061-10.036l-47.443-27.391" fill="none" stroke="#000" stroke-miterlimit="10" stroke-width="3"/></g><g transform="translate(1279.5 825.87)"><path d="m0 0c4.451-3.721 9.016-4.931 13.731-3.661l-27.391-47.443" fill="none" stroke="#000" stroke-miterlimit="10" stroke-width="3"/></g><g transform="translate(1268.5 817.16)"><path d="m0 0c4.572-0.797 8.23 0.479 10.978 3.244v-44.403" fill="none" stroke="#000" stroke-miterlimit="10" stroke-width="3"/></g><g transform="translate(1260.5 809.42)"><path d="m0 0c4.358 1.596 7.032 4.28 8.029 8.048l21.913-37.954" fill="none" stroke="#000" stroke-miterlimit="10" stroke-width="3"/></g><g transform="translate(1257.6 798.46)"><path d="m0 0c2.977 3.561 3.95 7.222 2.929 10.985l37.954-21.913" fill="none" stroke="#000" stroke-miterlimit="10" stroke-width="3"/></g><g transform="translate(1260.3 787.52)"><path d="m0 0c0.797 4.572 0.016 7.978-2.749 10.978h43.413" fill="none" stroke="#000" stroke-miterlimit="10" stroke-width="3"/></g><g transform="translate(1268.6 779.5)"><path d="m0 0c-1.595 4.358-4.274 7.023-8.048 8.029l37.954 21.913" fill="none" stroke="#000" stroke-miterlimit="10" stroke-width="3"/></g><g transform="translate(1279.5 776.58)"><path d="m0 0c-3.561 2.977-7.213 3.945-10.985 2.929l21.913 37.954" fill="none" stroke="#000" stroke-miterlimit="10" stroke-width="3"/></g><g transform="translate(1290.5 779.33)"><path d="m0 0c-4.572 0.797-8.219 0.011-10.978-2.754v43.423" fill="none" stroke="#000" stroke-miterlimit="10" stroke-width="3"/></g><g transform="translate(1298.5 787.56)"><path d="m0 0c-4.358-1.595-7.023-4.275-8.029-8.049l-21.913 37.955" fill="none" stroke="#000" stroke-miterlimit="10" stroke-width="3"/></g><g transform="translate(1301.4 798.52)"><path d="m0 0c-2.977-3.561-3.944-7.213-2.929-10.985l-37.955 21.913" fill="none" stroke="#000" stroke-miterlimit="10" stroke-width="3"/></g><g transform="translate(1298.2 809.48)"><path d="m0 0c-0.797-4.572 0.484-7.978 3.249-10.978h-44.413" fill="none" stroke="#000" stroke-miterlimit="10" stroke-width="3"/></g><g transform="translate(1290.4 817.48)"><path d="m0 0c1.596-4.358 4.275-7.023 8.048-8.029l-37.954-21.913" fill="none" stroke="#000" stroke-miterlimit="10" stroke-width="3"/></g><g transform="translate(1279.5 820.4)"><path d="m0 0c3.561-2.977 7.213-3.945 10.985-2.929l-21.913-37.954" fill="none" stroke="#000" stroke-miterlimit="10" stroke-width="3"/></g><g transform="translate(1270.7 813.18)"><path d="m0 0c3.658-0.638 6.584 0.632 8.782 2.845v-36.021" fill="none" stroke="#000" stroke-miterlimit="10" stroke-width="3"/></g><g transform="translate(1264.3 807.23)"><path d="m0 0c3.487 1.276 5.626 3.424 6.423 6.439l17.53-30.364" fill="none" stroke="#000" stroke-miterlimit="10" stroke-width="3"/></g><g transform="translate(1262 798.47)"><path d="m0 0c2.381 2.849 3.16 5.778 2.343 8.788l30.364-17.531" fill="none" stroke="#000" stroke-miterlimit="10" stroke-width="3"/></g><g transform="translate(1264.3 789.72)"><path d="m0 0c0.638 3.658-0.137 6.782-2.349 8.782h35.03" fill="none" stroke="#000" stroke-miterlimit="10" stroke-width="3"/></g><g transform="translate(1270.8 783.3)"><path d="m0 0c-1.276 3.487-3.42 5.618-6.439 6.423l30.364 17.531" fill="none" stroke="#000" stroke-miterlimit="10" stroke-width="3"/></g><g transform="translate(1279.5 780.97)"><path d="m0 0c-2.849 2.381-5.771 3.156-8.788 2.343l17.531 30.364" fill="none" stroke="#000" stroke-miterlimit="10" stroke-width="3"/></g><g transform="translate(1288.3 783.31)"><path d="m0 0c-3.658 0.638-6.575-0.142-8.782-2.354v35.04" fill="none" stroke="#000" stroke-miterlimit="10" stroke-width="3"/></g><g transform="translate(1294.7 789.75)"><path d="m0 0c-3.487-1.276-5.618-3.42-6.423-6.439l-17.531 30.364" fill="none" stroke="#000" stroke-miterlimit="10" stroke-width="3"/></g><g transform="translate(1297 798.51)"><path d="m0 0c-2.381-2.849-3.156-5.771-2.343-8.788l-30.364 17.531" fill="none" stroke="#000" stroke-miterlimit="10" stroke-width="3"/></g><g transform="translate(1294.2 807.28)"><path d="m0 0c-0.638-3.658 0.637-6.782 2.849-8.782h-36.03" fill="none" stroke="#000" stroke-miterlimit="10" stroke-width="3"/></g><g transform="translate(1288.2 813.68)"><path d="m0 0c1.276-3.487 3.42-5.618 6.439-6.423l-30.364-17.531" fill="none" stroke="#000" stroke-miterlimit="10" stroke-width="3"/></g><g transform="translate(1279.5 816.02)"><path d="m0 0c2.849-2.381 5.771-3.156 8.788-2.343l-17.531-30.364" fill="none" stroke="#000" stroke-miterlimit="10" stroke-width="3"/></g><g transform="translate(1272.5 810.39)"><path d="m0 0c2.926-0.51 5.267 0.355 7.026 2.125v-28.515" fill="none" stroke="#000" stroke-miterlimit="10" stroke-width="3"/></g><g transform="translate(1267.3 805.48)"><path d="m0 0c2.789 1.021 4.5 2.739 5.139 5.151l14.024-24.291" fill="none" stroke="#000" stroke-miterlimit="10" stroke-width="3"/></g><g transform="translate(1265.5 798.47)"><path d="m0 0c1.905 2.279 2.528 4.622 1.875 7.03l24.29-14.024" fill="none" stroke="#000" stroke-miterlimit="10" stroke-width="3"/></g><g transform="translate(1267.1 791.47)"><path d="m0 0c0.51 2.926 0.14 5.026-1.63 7.026h27.525" fill="none" stroke="#000" stroke-miterlimit="10" stroke-width="3"/></g><g transform="translate(1272.5 786.34)"><path d="m0 0c-1.021 2.789-2.736 4.495-5.151 5.139l24.291 14.024" fill="none" stroke="#000" stroke-miterlimit="10" stroke-width="3"/></g><g transform="translate(1279.5 784.47)"><path d="m0 0c-2.279 1.905-4.616 2.525-7.03 1.875l14.024 24.29" fill="none" stroke="#000" stroke-miterlimit="10" stroke-width="3"/></g><g transform="translate(1286.5 786.1)"><path d="m0 0c-2.926 0.51-5.26 0.135-7.026-1.634v27.534" fill="none" stroke="#000" stroke-miterlimit="10" stroke-width="3"/></g><g transform="translate(1291.7 791.5)"><path d="m0 0c-2.789-1.021-4.495-2.736-5.139-5.151l-14.024 24.291" fill="none" stroke="#000" stroke-miterlimit="10" stroke-width="3"/></g><g transform="translate(1293.5 798.51)"><path d="m0 0c-1.905-2.279-2.524-4.617-1.875-7.03l-24.291 14.024" fill="none" stroke="#000" stroke-miterlimit="10" stroke-width="3"/></g><g transform="translate(1291.4 805.53)"><path d="m0 0c-0.51-2.926 0.36-5.026 2.13-7.026h-28.525" fill="none" stroke="#000" stroke-miterlimit="10" stroke-width="3"/></g><g transform="translate(1286.5 810.64)"><path d="m0 0c1.021-2.789 2.736-4.495 5.151-5.139l-24.291-14.024" fill="none" stroke="#000" stroke-miterlimit="10" stroke-width="3"/></g><g transform="translate(1279.5 812.51)"><path d="m0 0c2.279-1.905 4.616-2.525 7.03-1.875l-14.024-24.29" fill="none" stroke="#000" stroke-miterlimit="10" stroke-width="3"/></g><g transform="translate(1273.9 808.06)"><path d="m0 0c2.341-0.408 4.214 0.233 5.62 1.649v-22.71" fill="none" stroke="#000" stroke-miterlimit="10" stroke-width="3"/></g><g transform="translate(1269.8 804.09)"><path d="m0 0c2.231 0.817 3.6 2.191 4.111 4.121l11.219-19.433" fill="none" stroke="#000" stroke-miterlimit="10" stroke-width="3"/></g><g transform="translate(1268.3 798.48)"><path d="m0 0c1.524 1.823 2.022 3.698 1.5 5.624l19.432-11.219" fill="none" stroke="#000" stroke-miterlimit="10" stroke-width="3"/></g><g transform="translate(1269.4 792.88)"><path d="m0 0c0.408 2.341 0.262 3.62-1.154 5.62h21.72" fill="none" stroke="#000" stroke-miterlimit="10" stroke-width="3"/></g><g transform="translate(1273.9 788.77)"><path d="m0 0c-0.817 2.231-2.188 3.596-4.121 4.111l19.433 11.219" fill="none" stroke="#000" stroke-miterlimit="10" stroke-width="3"/></g><g transform="translate(1279.5 787.27)"><path d="m0 0c-1.823 1.524-3.693 2.02-5.624 1.5l11.219 19.432" fill="none" stroke="#000" stroke-miterlimit="10" stroke-width="3"/></g><g transform="translate(1285.1 788.43)"><path d="m0 0c-2.341 0.408-4.208 0.257-5.62-1.158v21.729" fill="none" stroke="#000" stroke-miterlimit="10" stroke-width="3"/></g><g transform="translate(1289.2 792.89)"><path d="m0 0c-2.231-0.817-3.596-2.189-4.111-4.121l-11.219 19.433" fill="none" stroke="#000" stroke-miterlimit="10" stroke-width="3"/></g><g transform="translate(1290.7 798.5)"><path d="m0 0c-1.524-1.823-2.02-3.693-1.5-5.624l-19.432 11.219" fill="none" stroke="#000" stroke-miterlimit="10" stroke-width="3"/></g><g transform="translate(1289.1 804.12)"><path d="m0 0c-0.408-2.341 0.238-3.62 1.654-5.62h-22.72" fill="none" stroke="#000" stroke-miterlimit="10" stroke-width="3"/></g><g transform="translate(1285.1 808.21)"><path d="m0 0c0.817-2.231 2.188-3.596 4.121-4.111l-19.433-11.219" fill="none" stroke="#000" stroke-miterlimit="10" stroke-width="3"/></g><g transform="translate(1279.5 809.71)"><path d="m0 0c1.823-1.524 3.693-2.02 5.624-1.5l-11.219-19.432" fill="none" stroke="#000" stroke-miterlimit="10" stroke-width="3"/></g><g transform="translate(1275 806)"><path d="m0 0c1.873-0.327 3.371 0.335 4.496 1.468v-18.466" fill="none" stroke="#000" stroke-miterlimit="10" stroke-width="3"/></g><g transform="translate(1271.7 802.97)"><path d="m0 0c1.785 0.654 2.88 1.753 3.289 3.297l8.975-15.546" fill="none" stroke="#000" stroke-miterlimit="10" stroke-width="3"/></g><g transform="translate(1270.5 798.48)"><path d="m0 0c1.219 1.458 1.618 2.958 1.2 4.499l15.546-8.975" fill="none" stroke="#000" stroke-miterlimit="10" stroke-width="3"/></g><g transform="translate(1271.5 794)"><path d="m0 0c0.327 1.873 0.16 2.496-0.973 4.496h17.476" fill="none" stroke="#000" stroke-miterlimit="10" stroke-width="3"/></g><g transform="translate(1275 790.71)"><path d="m0 0c-0.653 1.785-1.751 2.877-3.297 3.289l15.547 8.975" fill="none" stroke="#000" stroke-miterlimit="10" stroke-width="3"/></g><g transform="translate(1279.5 789.52)"><path d="m0 0c-1.458 1.219-2.954 1.616-4.499 1.2l8.975 15.546" fill="none" stroke="#000" stroke-miterlimit="10" stroke-width="3"/></g><g transform="translate(1284 790.49)"><path d="m0 0c-1.873 0.327-3.366 0.155-4.496-0.978v17.486" fill="none" stroke="#000" stroke-miterlimit="10" stroke-width="3"/></g><g transform="translate(1287.3 794.01)"><path d="m0 0c-1.785-0.654-2.876-1.751-3.289-3.297l-8.975 15.547" fill="none" stroke="#000" stroke-miterlimit="10" stroke-width="3"/></g><g transform="translate(1288.5 798.5)"><path d="m0 0c-1.219-1.458-1.616-2.955-1.2-4.499l-15.546 8.975" fill="none" stroke="#000" stroke-miterlimit="10" stroke-width="3"/></g><g transform="translate(1287 803)"><path d="m0 0c-0.327-1.873 0.34-2.496 1.473-4.496h-18.476" fill="none" stroke="#000" stroke-miterlimit="10" stroke-width="3"/></g><g transform="translate(1284 806.27)"><path d="m0 0c0.653-1.785 1.751-2.877 3.297-3.289l-15.547-8.975" fill="none" stroke="#000" stroke-miterlimit="10" stroke-width="3"/></g><g transform="translate(1279.5 807.46)"><path d="m0 0c1.458-1.219 2.954-1.616 4.499-1.2l-8.975-15.546" fill="none" stroke="#000" stroke-miterlimit="10" stroke-width="3"/></g><g transform="translate(1275.9 804.55)"><path d="m0 0c1.498-0.261 2.697 0.217 3.597 1.123v-14.67" fill="none" stroke="#000" stroke-miterlimit="10" stroke-width="3"/></g><g transform="translate(1273.3 802.07)"><path d="m0 0c1.428 0.523 2.304 1.402 2.631 2.637l7.18-12.437" fill="none" stroke="#000" stroke-miterlimit="10" stroke-width="3"/></g><g transform="translate(1272.3 798.48)"><path d="m0 0c0.975 1.167 1.294 2.367 0.96 3.599l12.437-7.18" fill="none" stroke="#000" stroke-miterlimit="10" stroke-width="3"/></g><g transform="translate(1272.9 794.9)"><path d="m0 0c0.261 1.498 0.278 1.597-0.628 3.597h13.68" fill="none" stroke="#000" stroke-miterlimit="10" stroke-width="3"/></g><g transform="translate(1275.9 792.27)"><path d="m0 0c-0.523 1.428-1.401 2.301-2.637 2.631l12.437 7.18" fill="none" stroke="#000" stroke-miterlimit="10" stroke-width="3"/></g><g transform="translate(1279.5 791.31)"><path d="m0 0c-1.167 0.975-2.364 1.293-3.599 0.96l7.18 12.437" fill="none" stroke="#000" stroke-miterlimit="10" stroke-width="3"/></g><g transform="translate(1283.1 791.94)"><path d="m0 0c-1.498 0.261-2.693 0.273-3.597-0.633v13.69" fill="none" stroke="#000" stroke-miterlimit="10" stroke-width="3"/></g><g transform="translate(1285.7 794.91)"><path d="m0 0c-1.428-0.523-2.301-1.401-2.631-2.637l-7.18 12.437" fill="none" stroke="#000" stroke-miterlimit="10" stroke-width="3"/></g><g transform="translate(1286.7 798.5)"><path d="m0 0c-0.975-1.167-1.292-2.364-0.96-3.599l-12.437 7.18" fill="none" stroke="#000" stroke-miterlimit="10" stroke-width="3"/></g><g transform="translate(1285.6 802.1)"><path d="m0 0c-0.261-1.498 0.222-1.597 1.128-3.597h-14.68" fill="none" stroke="#000" stroke-miterlimit="10" stroke-width="3"/></g><g transform="translate(1283.1 804.71)"><path d="m0 0c0.523-1.428 1.401-2.301 2.637-2.631l-12.437-7.18" fill="none" stroke="#000" stroke-miterlimit="10" stroke-width="3"/></g><g transform="translate(1279.5 805.67)"><path d="m0 0c1.167-0.975 2.364-1.293 3.599-0.96l-7.18-12.437" fill="none" stroke="#000" stroke-miterlimit="10" stroke-width="3"/></g><g transform="translate(1276.6 803.09)"><path d="m0 0c1.198-0.209 2.157 0.423 2.878 1.148v-12.235" fill="none" stroke="#000" stroke-miterlimit="10" stroke-width="3"/></g><g transform="translate(1274.5 801.36)"><path d="m0 0c1.142 0.418 1.843 1.122 2.105 2.11l5.744-9.95" fill="none" stroke="#000" stroke-miterlimit="10" stroke-width="3"/></g><g transform="translate(1273.8 798.48)"><path d="m0 0c0.78 0.933 1.036 1.893 0.768 2.88l9.949-5.745" fill="none" stroke="#000" stroke-miterlimit="10" stroke-width="3"/></g><g transform="translate(1274.4 795.62)"><path d="m0 0c0.209 1.199 0.072 0.878-0.653 2.878h11.245" fill="none" stroke="#000" stroke-miterlimit="10" stroke-width="3"/></g><g transform="translate(1276.6 793.51)"><path d="m0 0c-0.418 1.142-1.12 1.841-2.11 2.105l9.95 5.744" fill="none" stroke="#000" stroke-miterlimit="10" stroke-width="3"/></g><g transform="translate(1279.5 792.75)"><path d="m0 0c-0.933 0.78-1.891 1.034-2.88 0.768l5.745 9.949" fill="none" stroke="#000" stroke-miterlimit="10" stroke-width="3"/></g><g transform="translate(1282.4 793.4)"><path d="m0 0c-1.198 0.209-2.155 0.067-2.878-0.658v11.255" fill="none" stroke="#000" stroke-miterlimit="10" stroke-width="3"/></g><g transform="translate(1284.5 795.63)"><path d="m0 0c-1.142-0.418-1.841-1.121-2.105-2.11l-5.744 9.95" fill="none" stroke="#000" stroke-miterlimit="10" stroke-width="3"/></g><g transform="translate(1285.2 798.5)"><path d="m0 0c-0.78-0.933-1.034-1.891-0.768-2.88l-9.949 5.745" fill="none" stroke="#000" stroke-miterlimit="10" stroke-width="3"/></g><g transform="translate(1284.1 801.38)"><path d="m0 0c-0.209-1.199 0.428-0.878 1.153-2.878h-12.245" fill="none" stroke="#000" stroke-miterlimit="10" stroke-width="3"/></g><g transform="translate(1282.4 803.47)"><path d="m0 0c0.418-1.143 1.121-1.841 2.11-2.105l-9.95-5.744" fill="none" stroke="#000" stroke-miterlimit="10" stroke-width="3"/></g><g transform="translate(1279.5 804.23)"><path d="m0 0c0.933-0.78 1.891-1.034 2.88-0.768l-5.745-9.949" fill="none" stroke="#000" stroke-miterlimit="10" stroke-width="3"/></g><g transform="translate(1277.2 802.02)"><path d="m0 0c0.959-0.167 1.726 0.487 2.302 1.067v-10.086" fill="none" stroke="#000" stroke-miterlimit="10" stroke-width="3"/></g><g transform="translate(1275.5 800.78)"><path d="m0 0c0.914 0.335 1.475 0.898 1.684 1.688l4.595-7.96" fill="none" stroke="#000" stroke-miterlimit="10" stroke-width="3"/></g><g transform="translate(1274.9 798.48)"><path d="m0 0c0.624 0.747 0.828 1.515 0.614 2.304l7.96-4.596" fill="none" stroke="#000" stroke-miterlimit="10" stroke-width="3"/></g><g transform="translate(1275.5 796.2)"><path d="m0 0c0.167 0.959 8e-3 0.302-0.572 2.302h9.095" fill="none" stroke="#000" stroke-miterlimit="10" stroke-width="3"/></g><g transform="translate(1277.2 794.51)"><path d="m0 0c-0.335 0.914-0.896 1.473-1.688 1.684l7.96 4.595" fill="none" stroke="#000" stroke-miterlimit="10" stroke-width="3"/></g><g transform="translate(1279.5 793.9)"><path d="m0 0c-0.747 0.624-1.513 0.827-2.304 0.614l4.596 7.96" fill="none" stroke="#000" stroke-miterlimit="10" stroke-width="3"/></g><g transform="translate(1281.8 794.47)"><path d="m0 0c-0.959 0.167-1.724 3e-3 -2.302-0.577v9.105" fill="none" stroke="#000" stroke-miterlimit="10" stroke-width="3"/></g><g transform="translate(1283.5 796.2)"><path d="m0 0c-0.914-0.335-1.473-0.896-1.684-1.688l-4.595 7.96" fill="none" stroke="#000" stroke-miterlimit="10" stroke-width="3"/></g><g transform="translate(1284.1 798.5)"><path d="m0 0c-0.624-0.747-0.827-1.513-0.614-2.304l-7.96 4.596" fill="none" stroke="#000" stroke-miterlimit="10" stroke-width="3"/></g><g transform="translate(1283 800.8)"><path d="m0 0c-0.167-0.959 0.492-0.302 1.072-2.302h-10.095" fill="none" stroke="#000" stroke-miterlimit="10" stroke-width="3"/></g><g transform="translate(1281.8 802.47)"><path d="m0 0c0.335-0.914 0.896-1.473 1.688-1.684l-7.96-4.595" fill="none" stroke="#000" stroke-miterlimit="10" stroke-width="3"/></g><g transform="translate(1279.5 803.08)"><path d="m0 0c0.747-0.624 1.513-0.827 2.304-0.614l-4.596-7.96" fill="none" stroke="#000" stroke-miterlimit="10" stroke-width="3"/></g><g transform="translate(1277.7 801.26)"><path d="m0 0c0.767-0.134 1.381 0.439 1.842 0.903v-8.167" fill="none" stroke="#000" stroke-miterlimit="10" stroke-width="3"/></g><g transform="translate(1276.3 800.32)"><path d="m0 0c0.731 0.268 1.18 0.718 1.347 1.35l3.676-6.367" fill="none" stroke="#000" stroke-miterlimit="10" stroke-width="3"/></g><g transform="translate(1275.8 798.49)"><path d="m0 0c0.499 0.597 0.663 1.212 0.491 1.843l6.368-3.676" fill="none" stroke="#000" stroke-miterlimit="10" stroke-width="3"/></g><g transform="translate(1276.2 796.66)"><path d="m0 0c0.134 0.767 0.056-0.158-0.408 1.842h7.177" fill="none" stroke="#000" stroke-miterlimit="10" stroke-width="3"/></g><g transform="translate(1277.7 795.31)"><path d="m0 0c-0.268 0.731-0.717 1.178-1.35 1.347l6.367 3.676" fill="none" stroke="#000" stroke-miterlimit="10" stroke-width="3"/></g><g transform="translate(1279.5 794.82)"><path d="m0 0c-0.597 0.499-1.21 0.662-1.843 0.491l3.676 6.368" fill="none" stroke="#000" stroke-miterlimit="10" stroke-width="3"/></g><g transform="translate(1281.3 795.23)"><path d="m0 0c-0.767 0.134-1.379 0.051-1.842-0.413v7.187" fill="none" stroke="#000" stroke-miterlimit="10" stroke-width="3"/></g><g transform="translate(1282.7 796.66)"><path d="m0 0c-0.731-0.268-1.178-0.717-1.347-1.35l-3.676 6.367" fill="none" stroke="#000" stroke-miterlimit="10" stroke-width="3"/></g><g transform="translate(1283.2 798.5)"><path d="m0 0c-0.499-0.597-0.662-1.21-0.491-1.843l-6.368 3.676" fill="none" stroke="#000" stroke-miterlimit="10" stroke-width="3"/></g><g transform="translate(1282.3 800.34)"><path d="m0 0c-0.134-0.767 0.444 0.158 0.908-1.842h-8.177" fill="none" stroke="#000" stroke-miterlimit="10" stroke-width="3"/></g><g transform="translate(1281.3 801.68)"><path d="m0 0c0.268-0.731 0.717-1.178 1.35-1.347l-6.367-3.676" fill="none" stroke="#000" stroke-miterlimit="10" stroke-width="3"/></g><g transform="translate(1279.5 802.17)"><path d="m0 0c0.597-0.499 1.21-0.662 1.843-0.491l-3.676-6.368" fill="none" stroke="#000" stroke-miterlimit="10" stroke-width="3"/></g></g></g></svg>
