<?xml version="1.0" encoding="UTF-8"?>
<svg width="650" height="450" version="1.1" viewBox="0 0 650.00001 450" xmlns="http://www.w3.org/2000/svg" xmlns:xlink="http://www.w3.org/1999/xlink">
 <defs>
  <linearGradient id="a">
   <stop stop-color="#fff" offset="0"/>
   <stop stop-color="#fff" stop-opacity="0" offset="1"/>
  </linearGradient>
  <pattern id="s" xlink:href="#n" patternTransform="matrix(6.0861 0 0 6.0861 -28.607 -204.31)"/>
  <pattern id="n" width="10" height="10" patternTransform="translate(0) scale(10)" patternUnits="userSpaceOnUse">
   <circle cx="2.567" cy=".81" r=".05" fill="#fff"/>
   <circle cx="3.048" cy="2.33" r=".05" fill="#fff"/>
   <circle cx="4.418" cy="2.415" r=".05" fill="#fff"/>
   <circle cx="1.844" cy="3.029" r=".05" fill="#fff"/>
   <circle cx="6.08" cy="1.363" r=".05" fill="#fff"/>
   <circle cx="5.819" cy="4.413" r=".05" fill="#fff"/>
   <circle cx="4.305" cy="4.048" r=".05" fill="#fff"/>
   <circle cx="5.541" cy="3.045" r=".05" fill="#fff"/>
   <circle cx="4.785" cy="5.527" r=".05" fill="#fff"/>
   <circle cx="2.667" cy="5.184" r=".05" fill="#fff"/>
   <circle cx="7.965" cy="1.448" r=".05" fill="#fff"/>
   <circle cx="7.047" cy="5.049" r=".05" fill="#fff"/>
   <circle cx="4.34" cy=".895" r=".05" fill="#fff"/>
   <circle cx="7.125" cy=".34" r=".05" fill="#fff"/>
   <circle cx="9.553" cy="1.049" r=".05" fill="#fff"/>
   <circle cx="7.006" cy="2.689" r=".05" fill="#fff"/>
   <circle cx="8.909" cy="2.689" r=".05" fill="#fff"/>
   <circle cx="9.315" cy="4.407" r=".05" fill="#fff"/>
   <circle cx="7.82" cy="3.87" r=".05" fill="#fff"/>
   <circle cx="8.27" cy="5.948" r=".05" fill="#fff"/>
   <circle cx="7.973" cy="7.428" r=".05" fill="#fff"/>
   <circle cx="9.342" cy="8.072" r=".05" fill="#fff"/>
   <circle cx="8.206" cy="9.315" r=".05" fill="#fff"/>
   <circle cx="9.682" cy="9.475" r=".05" fill="#fff"/>
   <circle cx="9.688" cy="6.186" r=".05" fill="#fff"/>
   <circle cx="3.379" cy="6.296" r=".05" fill="#fff"/>
   <circle cx="2.871" cy="8.204" r=".05" fill="#fff"/>
   <circle cx="4.59" cy="8.719" r=".05" fill="#fff"/>
   <circle cx="3.181" cy="9.671" r=".05" fill="#fff"/>
   <circle cx="5.734" cy="7.315" r=".05" fill="#fff"/>
   <circle cx="6.707" cy="6.513" r=".05" fill="#fff"/>
   <circle cx="5.73" cy="9.67" r=".05" fill="#fff"/>
   <circle cx="6.535" cy="8.373" r=".05" fill="#fff"/>
   <circle cx="4.37" cy="7.154" r=".05" fill="#fff"/>
   <circle cx=".622" cy="7.25" r=".05" fill="#fff"/>
   <circle cx=".831" cy="5.679" r=".05" fill="#fff"/>
   <circle cx="1.257" cy="8.519" r=".05" fill="#fff"/>
   <circle cx="1.989" cy="6.877" r=".05" fill="#fff"/>
   <circle cx=".374" cy="3.181" r=".05" fill="#fff"/>
   <circle cx="1.166" cy="1.664" r=".05" fill="#fff"/>
   <circle cx="1.151" cy=".093" r=".05" fill="#fff"/>
   <circle cx="1.151" cy="10.093" r=".05" fill="#fff"/>
   <circle cx="1.302" cy="4.451" r=".05" fill="#fff"/>
   <circle cx="3.047" cy="3.763" r=".05" fill="#fff"/>
  </pattern>
  <filter id="p" x="-.011246" y="-.012862" width="1.0225" height="1.0257" color-interpolation-filters="sRGB">
   <feGaussianBlur stdDeviation="2.7773188"/>
  </filter>
  <linearGradient id="q" x1="559.55" x2="575.42" y1="336.53" y2="673.67" gradientTransform="matrix(.60861 0 0 .60861 4.8887 416.24)" gradientUnits="userSpaceOnUse">
   <stop stop-color="#000080" offset="0"/>
   <stop stop-color="#000080" stop-opacity="0" offset="1"/>
  </linearGradient>
  <radialGradient id="t" cx="541.98" cy="684.55" r="123.31" gradientTransform="matrix(.21388 0 0 .19064 472.79 1296.6)" gradientUnits="userSpaceOnUse" xlink:href="#a"/>
  <radialGradient id="u" cx="541.98" cy="684.55" r="123.31" gradientTransform="matrix(.32557 0 0 .2902 411.21 1223.5)" gradientUnits="userSpaceOnUse" xlink:href="#a"/>
  <linearGradient id="r" x1="438.5" x2="855.6" y1="1478.6" y2="1478.6" gradientTransform="translate(-5.0595e-6)" gradientUnits="userSpaceOnUse">
   <stop stop-color="#fff" offset="0"/>
   <stop stop-color="#fff" stop-opacity="0" offset="1"/>
  </linearGradient>
  <filter id="o" x="-.0088678" y="-.018553" width="1.0177" height="1.0371" color-interpolation-filters="sRGB">
   <feGaussianBlur stdDeviation="1.5368278"/>
  </filter>
  <linearGradient id="m" x1="605.27" x2="620.99" y1="1560.1" y2="1553.6" gradientUnits="userSpaceOnUse" xlink:href="#a"/>
  <filter id="l" x="-.091418" y="-.10158" width="1.1828" height="1.2032" color-interpolation-filters="sRGB">
   <feGaussianBlur stdDeviation="0.57658064"/>
  </filter>
 </defs>
 <g transform="translate(0 -602.36)">
  <path d="m10.105 609.82h632.95v445.15h-632.95v-445.15z" fill="#00112b"/>
  <path d="m11.141 610.19h627.52v448.23h-627.52v-448.23z" fill="url(#q)"/>
  <g transform="translate(-257.03 -727.89)">
   <path d="m537.52 1481.3c15.041-18.279 30.082-36.558 45.122-54.837-9.5978-0.2938-19.196-0.5877-28.793-0.8816 10.254-0.5571 20.508-1.1141 30.761-1.6712-7.5199-20.184-15.04-40.369-22.56-60.553 8.5848 20.327 17.17 40.654 25.754 60.981 16.665-16.417 33.331-32.834 49.996-49.252-16.256 17.411-32.513 34.822-48.769 52.232 16.197 0.6411 32.394 1.2823 48.591 1.9235-16.853 0.2098-33.706 0.4195-50.559 0.6292 5.2623 8.8964 10.525 17.793 15.787 26.689-6.3272-9.0391-12.654-18.078-18.982-27.117-15.45 17.286-30.899 34.571-46.349 51.857z" fill="#fff" stroke="#fff" stroke-linecap="round" stroke-linejoin="round" stroke-width=".04295"/>
   <path d="m552.25 1442.7c10.167-5.5528 20.333-11.106 30.5-16.658-16.592-4.097-33.183-8.1939-49.775-12.291 17.372 3.3586 34.744 6.717 52.116 10.075-1.1395-4.2632-2.279-8.5263-3.4186-12.79 2.1693 4.5698 4.3385 9.1396 6.5078 13.709 4.8589-7.1126 9.7177-14.225 14.577-21.338-4.6095 8.1576-9.219 16.315-13.829 24.473 16.765 6.8755 33.531 13.751 50.296 20.627-17.546-6.1371-35.091-12.274-52.637-18.411 2.5288 9.6467 5.0576 19.293 7.5864 28.94-3.5585-9.9533-7.1171-19.907-10.676-29.86-10.416 4.5077-20.832 9.0153-31.248 13.523z" fill="#fff" opacity=".3955" stroke="#fff" stroke-linecap="round" stroke-linejoin="round" stroke-width=".04295"/>
   <path d="m574.92 1470.8c2.5736-14.508 5.1471-29.016 7.7207-43.524-16.526 1.1387-33.051 2.2775-49.577 3.4162 16.954-2.124 33.908-4.248 50.862-6.3721-17.828-17.194-35.656-34.389-53.484-51.583 18.896 17.072 37.791 34.145 56.687 51.218 6.1649-16.596 12.33-33.193 18.495-49.789-5.5258 17.46-11.052 34.92-16.577 52.38 21.388-5.6539 42.776-11.308 64.164-16.962-21.816 6.6391-43.633 13.278-65.449 19.918 8.6241 8.3375 17.248 16.675 25.872 25.013-9.6916-8.2159-19.383-16.432-29.075-24.648-3.2127 13.644-6.4253 27.288-9.638 40.933z" fill="#fff" opacity=".543" stroke="#fff" stroke-linecap="round" stroke-linejoin="round" stroke-width=".04295"/>
   <path d="m615.02 1427.1c0.0348 18.695-23.42 28.907-38.82 20.624-14.715-5.7941-18.782-27.372-5.9867-37.296 14.833-13.747 44.101-5.5495 44.803 16.254" fill="url(#t)" opacity=".59164"/>
   <path d="m627.72 1422.1c0.14022 25.313-29.047 41.278-51.714 34.14-23.299-4.5337-37.539-34.821-21.589-54.027 16.98-23.343 58.415-20.244 70.384 6.5129 1.8159 3.9918 2.8285 8.3537 2.9125 12.739" fill="url(#u)" opacity=".196"/>
   <path transform="matrix(.2115 -.031793 .031793 .2115 448.19 1297.8)" d="m365.46 910.73c44.73-69.452 89.46-138.9 134.19-208.35-79.316-23.091-158.63-46.183-237.95-69.274 82.512 4.0117 165.02 8.0234 247.54 12.035-19.661-80.236-39.321-160.47-58.982-240.71 37.782 73.463 75.563 146.93 113.35 220.39 59.656-57.144 119.31-114.29 178.97-171.43-44.73 69.452-89.46 138.9-134.19 208.35 79.316 23.091 158.63 46.183 237.95 69.274-82.512-4.0117-165.02-8.0234-247.54-12.035 19.661 80.236 39.321 160.47 58.982 240.71-37.782-73.463-75.563-146.93-113.35-220.39l-178.97 171.43z" fill="#fff" filter="url(#p)" opacity=".279"/>
  </g>
  <path d="m43.673 760.54c-17.629 37.022-47.599 283.83-3.5259 276.78 44.073-7.0519 33.496-15.866 253.86-10.578 220.37 5.2887 336.72-5.2888 340.25-33.496 3.5258-28.207-47.599-100.49-54.651-139.27-7.0518-38.785-193.92-63.466-188.63-89.91 5.2888-26.444-37.022-58.177-61.703-65.229s-49.362-8.8147-59.94 24.681c-10.578 33.496-61.703 89.91-91.673 93.436s-133.98-56.414-133.98-56.414z" color="#000000" color-rendering="auto" fill="url(#s)" fill-rule="evenodd" image-rendering="auto" shape-rendering="auto" solid-color="#000000" style="isolation:auto;mix-blend-mode:normal"/>
  <path transform="matrix(-.66521 0 0 -.66521 919.32 1747.6)" d="m854.87 1379.8c-0.29168 0.5239-0.58352 1.0481-0.87565 1.5727-82.333 31.762-186.04 81.003-269.21 122.28-83.161 41.268-145.75 74.55-145.84 74.381-0.0903-0.1688 62.326-33.792 145.33-75.41 82.991-41.612 186.6-91.236 268.89-123.39 0.57029 0.1898 1.1396 0.3801 1.708 0.5711z" color="#000000" color-rendering="auto" fill="#fff" fill-rule="evenodd" filter="url(#o)" image-rendering="auto" opacity=".203" shape-rendering="auto" solid-color="#000000" stroke="url(#r)" stroke-width="1px" style="isolation:auto;mix-blend-mode:normal"/>
  <path transform="matrix(.76707 0 0 .71631 -113.47 -288.46)" d="m615.57 1559.7a7.5685 6.8117 0 0 1 -7.5348 6.8116 7.5685 6.8117 0 0 1 -7.6019 -6.751 7.5685 6.8117 0 0 1 7.4672 -6.8716 7.5685 6.8117 0 0 1 7.6684 6.6898" fill="url(#m)" filter="url(#l)" opacity=".344"/>
  <path transform="matrix(1.7364 0 0 1.3528 -700.65 -1286.6)" d="m615.57 1559.7a7.5685 6.8117 0 0 1 -7.5348 6.8116 7.5685 6.8117 0 0 1 -7.6019 -6.751 7.5685 6.8117 0 0 1 7.4672 -6.8716 7.5685 6.8117 0 0 1 7.6684 6.6898" fill="url(#m)" filter="url(#l)" opacity=".17"/>
 </g>
</svg>
