<?xml version="1.0" encoding="UTF-8"?>
<svg viewBox="0 0 173.7 308.55237" xmlns="http://www.w3.org/2000/svg">
 <g transform="translate(-308.66 -170.24)">
  <g transform="translate(308.65 63.64)" fill="none" stroke="#000">
   <path transform="matrix(.90426 0 0 .90426 -102.2 -42.316)" d="m300 198.79a90.714 28.571 0 1 1 -181.43 0 90.714 28.571 0 1 1 181.43 0z" stroke-width="11.059"/>
   <g transform="translate(-.83653,-3.4724)" stroke-width="10">
    <path d="m5.8572 140.93v50.714c0 26.364 61.429 37.705 61.429 61.429v11.429"/>
    <path d="m5.8572 388.01v-50.714c0-26.364 61.429-37.705 61.429-61.429v-11.429"/>
   </g>
   <g transform="matrix(-1 0 0 1 174.94 -3.4724)" stroke-width="10">
    <path d="m5.8572 140.93v50.714c0 26.364 61.429 37.705 61.429 61.429v11.429"/>
    <path d="m5.8572 388.01v-50.714c0-26.364 61.429-37.705 61.429-61.429v-11.429"/>
   </g>
   <path d="m5.0287 384.15s-3.4827 26.011 81.317 26.011 82.708-26.011 82.708-26.011" stroke-width="10"/>
  </g>
  <path d="m328.72 250.15c-0.0717 0.1404 32.963 18.738 67.965 18.208s66.465-19.269 66.465-19.269c0.70063 0-17.933 19.436-54.676 43.767-13.466 21.621-11.112 45.199-12.496 45.328s1.3821-25.682-13.203-46.846c-36.575-24.856-53.983-41.329-54.055-41.189z"/>
  <path d="m328.72 445.12c2.7568 1.9809 32.963 9.8995 67.965 10.43s64.347-6.364 66.465-9.3692-27.422-24.553-44.565-29.171c-13.405-3.6112-21.619-19.903-24.021-19.903s-13.408 16.236-26.496 19.421c-15.753 3.8338-42.105 26.612-39.348 28.593z"/>
 </g>
</svg>
