<?xml version="1.0" encoding="UTF-8"?>
<svg enable-background="new 0 0 612 465.3" version="1.1" viewBox="0 0 612 465.3" xml:space="preserve" xmlns="http://www.w3.org/2000/svg">
<style type="text/css">
	.st0{fill:none;stroke:#000000;stroke-width:2;stroke-miterlimit:10;}
	.st1{stroke:#000000;stroke-width:2;stroke-miterlimit:10;}
	.st2{font-family:'KristenITC-Regular';}
	.st3{font-size:12px;}
</style>
	<path class="st0" d="m78.1 71.3s-0.1 0 0 0c-1.5-0.6-2.4-1.8-2.5-3.2 0-1.3 0.8-2.2 1-2.3 0.6-0.6 1.4-1 2.3-1h13.7c1.6 0 3.1 1.1 3.4 2.7 0.2 1.1-0.2 2.2-0.9 2.9-0.4 0.4-0.9 0.7-1.5 0.8 0 0.6-0.4 10.3-0.2 10.3 9.8 23.6 14.5 37.8 16.6 44.7 0.2 0.5 0.6 4-0.7 6.1-0.5 0.8-0.7 2.2-4.4 3.7-4.4 1.8-35.6 0.5-35.6 0.5-0.9-0.1-3.3-0.6-5.3-2.6-2.7-2.7-2.3-6.8-2.2-8.1 0-0.3 16-44.2 16.4-44.7-0.1-3.1-0.1-6.5-0.1-9.8z"/>
	<path class="st1" d="m102.5 130c0.4-0.2 0.6-0.3 0.7-0.4s0.2-0.3 0.3-0.5c0.1-0.3 0.1-0.9 0-1.3-2.5-8-14.5-39.9-14.5-39.9h-6.4c-3.6 9.8-12.7 34.5-14.4 39.4 0 1.7 0.3 2.1 0.3 2.2 0.4 0.4 1 0.6 1.3 0.7 2 0.1 11.2 0.4 19.7 0.4 9.7-0.1 12.4-0.5 13-0.6zm-17.9-53.1c-1.3 0-2.4 1.1-2.4 2.4s1.1 2.4 2.4 2.4 2.4-1.1 2.4-2.4-1.1-2.4-2.4-2.4zm3-8.6c-1.3 0-2.4 1.1-2.4 2.4s1.1 2.4 2.4 2.4 2.4-1.1 2.4-2.4c0.1-1.3-1-2.4-2.4-2.4zm-4.3-13.2c-1.6 0-2.9 1.3-2.9 2.9s1.3 2.9 2.9 2.9 2.9-1.3 2.9-2.9-1.3-2.9-2.9-2.9zm7-7.2c-1.6 0-2.9 1.3-2.9 2.9s1.3 2.9 2.9 2.9 2.9-1.3 2.9-2.9-1.3-2.9-2.9-2.9z"/>
	<ellipse class="st0" transform="matrix(.638 -.7701 .7701 .638 -9.5001 185.53)" cx="192.6" cy="102.9" rx="9.5" ry="39.1"/>
	<ellipse class="st0" cx="192.6" cy="102.5" rx="9.3" ry="36.4"/>
		<ellipse class="st0" transform="matrix(-.7715 .6362 -.6362 -.7715 406.58 59.713)" cx="192.6" cy="102.9" rx="39.1" ry="9.9"/>
	<circle class="st1" cx="167.7" cy="91.6" r="5"/>
	<circle class="st1" cx="187.3" cy="131.6" r="5"/>
	<circle class="st1" cx="215" cy="95.9" r="5"/>
<path class="st0" d="m272.9 69.9h24.7v19.7h-24.7v-19.7zm24.7 19.7h24.7v-19.7h-24.7v19.7zm24.8 0h24.7v-19.7h-24.7v19.7zm24.7 0h24.7v-19.7h-24.7v19.7zm24.7 0h24.7v-19.7h-24.7v19.7zm22 9.3l-118.1-0.3m118.1 10.3l-118.1-0.3m129.6-42.3h11.2v64.6h-11.2v-64.6zm11.2 64.6h11.2v-64.6h-11.2v64.6zm-122.3 0.3m26.7 0h113.9m-140.6 0h-18.6c-4.7 0-8.6-3.7-8.6-8.1v-55.4c0-4.5 3.9-8.1 8.6-8.1h155.4c4.7 0 8.6 3.7 8.6 8.1v20.2l31.7-0.2c6.7 0 13.8 5.7 13.8 12l0.5 21.5c0 6.3-6.8 10-13.5 10h-11m-153.6-16.3c-7.4 0-13.5 6.8-13.5 15.2s6 15.2 13.5 15.2 13.5-6.8 13.5-15.2-6.1-15.2-13.5-15.2zm143 0.5c-7.3-1.2-14.3 4.5-15.7 12.7-1.4 8.3 3.4 15.9 10.6 17.2 7.3 1.2 14.3-4.5 15.7-12.7 1.4-8.3-3.3-16-10.6-17.2zm-143.5 7.5c-3.5 0-6.3 3.2-6.3 7.2s2.8 7.2 6.3 7.2 6.3-3.2 6.3-7.2-2.8-7.2-6.3-7.2zm142.3-0.1c-3.7-0.6-7.2 2.3-7.9 6.4-0.7 4.2 1.7 8 5.4 8.7 3.7 0.6 7.2-2.3 7.9-6.4 0.6-4.2-1.8-8.1-5.4-8.7z"/>
	<path class="st0" d="m118.8 251.8"/>
		<path class="st0" d="m64 318.4c15.4 2.2 31.3 2.4 46.6-0.5"/>
	<path class="st0" d="m54 344.9v-23.1c0-10.9 14.7-19.8 32.7-19.8h8c18 0 32.7 8.9 32.7 19.8v23.1c0.1 19.4 0.1 19.4-32.7 19.8s-8 0-8 0c-31.6 0-32.1-0.4-32.7-19.8zm29.2 30.6s-31.8 0.7 10.2 0 42-0.7 41.9-41.9v-49c0-23-18.8-41.9-41.9-41.9h-10.2c-23 0-41.9 18.8-41.9 41.9v49c0.8 41.2 1.4 41.8 41.9 41.9zm-36.6-6.7c-9.3-4.1-9.7-14.2-10.1-39.5v-49.5c0-23.3 18.7-42.3 41.5-42.3h10.1c11.8 0 22.5 5.1 30.1 13.2m-30.7-13.4v-5c0-1.1-0.5-2.1-1.2-2.8s-1.8-1.2-2.9-1.2c-2.3 0-4.1 1.8-4.1 3.9v4.6m-3.4 0.1v-6.6c0-3.1 3.4-5.7 7.5-5.7 2.1 0 3.9 0.6 5.3 1.7 1.4 1 2.2 2.5 2.2 4v7.2m-6.9 127.2s-26.4 0.4 8.5 0 34.9-0.4 34.8-21.1v-24.7c0-11.6-15.7-21.1-34.8-21.1h-8.5c-19.2 0-34.8 9.5-34.8 21.1v24.7c0.5 20.7 1.1 21 34.8 21.1z"/>
	<path class="st0" d="m275.2 300.2c0 30.7-24.9 55.6-55.6 55.6s-55.6-24.9-55.6-55.6 24.9-55.6 55.6-55.6 55.6 24.9 55.6 55.6zm-55.6-66.3c-36.7 0-66.4 29.7-66.4 66.4s29.7 66.4 66.4 66.4 66.4-29.7 66.4-66.4-29.7-66.4-66.4-66.4zm0 62.8c-1.9 0-3.5 1.6-3.5 3.5s1.6 3.5 3.5 3.5 3.5-1.6 3.5-3.5-1.6-3.5-3.5-3.5zm20.3 3.4l-16.8-0.4m-3.9-3.1v-29"/>
	<text class="st2 st3" transform="translate(213.83 258.93)">12</text>
	<text class="st2 st3" transform="translate(266.01 303.58)">3</text>
	<text class="st2 st3" transform="translate(216.68 352.27)">6</text>
	<text class="st2 st3" transform="translate(168.67 303.58)">9</text>
<path class="st0" d="m414.1 311.8l-79.8 0.3c-0.1 0-17.3-45.1-20.9-54.7-0.5-1.4-0.7-2.8-0.6-4.3 0.2-2.1 0.8-3.8 2.4-4.5 4.9-1.8 81.4 13.5 100.7 18.8 2.7 0.8 4.6 3.3 4.5 6.1l-1.1 33c0.1 3-2.3 5.3-5.2 5.3zm91.3-36.9l7.1-43.3c0.8-4.9-2.5-9.5-7.4-10.3s-9.5 2.5-10.3 7.4l-7.1 43.3c-0.8 4.9 2.5 9.5 7.4 10.3s9.5-2.5 10.3-7.4zm-8.6 30.8l2.1-24.3m-6.6-2.7m-0.2 1.9l-2.2 25.5m8.4 23.7h-65.4c-1.2 0-2.3-1-2.3-2.3v-19.4c0-1.3 1.1-2.4 2.4-2.4h65.3v24.1zm-10-7.2m3.1 7.2l3.8 49.4h-156.8l5.4-67.3m7.8 0.6l-4.7 61.8h142.2l-3.1-44m3.1-1m-103 45v-62.2m8 62.2l0.1-62.1m60.8 17.5l-8.1 44.5m1.1-44.5l-8.1 44.5"/>
<path class="st0" d="m545.1 73.3h-0.1c-1 0-1.8 0.8-1.8 1.8v128.3c0 0.9 0.7 1.6 1.6 1.6 6.9 2.4 14.6 2.3 23 0 0.8 0 1.4-0.6 1.4-1.4v-128.6c0-1-1.1-1.2-1.2-1.2h-0.3m-19.8-4.2c-1.1 0-1.5-1.6-1.1-2.7l7.4-21.5c0.5-1.5 2.6-1.5 3.2-0.1l8.2 21.5c0.4 1.1-0.5 2.7-1.7 2.7-4.9 1-10.3 0.9-16 0.1zm20 3c0.2-3.3 0-3-3-3-5.9 0.7-11.7 0.7-17.5 0-3.3-0.5-2.7 0.2-3 3-0.1 3.2 23.4 3.7 23.5 0zm-24.7 4.6c13.2 3.5 10.4 3.3 25.9 0.1l0.1 117c-15.5 3.2-12.7 3.4-25.9-0.1l-0.1-117zm22 55.4c0 21.7-4 39.3-9 39.3s-9-17.6-9-39.3 4-39.3 9-39.3c4.9 0 9 17.6 9 39.3z"/>
	<path class="st1" d="m559.9 247.8l5.6 9-13 1.4 4.4-10.2c0.6-1.4 2.2-1.5 3-0.2z"/>
	<path class="st0" d="m579.4 280.6l1.6 103c0 0.6-4.9 9.6-7.8 14.3-0.8 1.6-2.5 2.6-4.3 2.6-5.3 0.4-10.5 0.5-15.6 0.2-1.1 0-2.1-0.6-2.6-1.5-2.6-3.4-7.8-11.1-7.8-11.4l-1.9-106.2m29.9 118.9l-2.6-97.9c-0.3-12.3-4.8-15.7-9.2-15.5h-0.1c-5 0.6-8.9 5.4-8.6 17.7l2.4 96.2m26.8-119.6c-5.2 1.5-11.6 5.8-11.8 15.5m-17 2c-1.1-7.8-5.6-16.7-9.9-16.4m38.8-1.2l-14.3-25.1-12.6 1.7-11.7 24.1m2.1 117.1c5.4 6.2 19.7 22 38-2.8m-38.1-10.9l0.2 39.4m37.7-2.5l0.2-40m-38.1 41.9c5.4 6.2 19.7 22.4 38-2.4m-37.9-26c5.4 6.2 19.7 22 38-2.8m-38 9.4c5.4 6.2 19.7 22 38-2.8"/>
</svg>
