<?xml version="1.0" encoding="UTF-8"?>
<svg version="1.1" viewBox="0 0 744.09 1052.4" xmlns="http://www.w3.org/2000/svg" xmlns:xlink="http://www.w3.org/1999/xlink">
 <defs>
  <radialGradient id="a" cx="501.52" cy="733.55" r="227.11" gradientTransform="matrix(1.2792 -.010611 .010579 1.2754 -278.6 -626.77)" gradientUnits="userSpaceOnUse">
   <stop stop-color="#ff7f2a" offset="0"/>
  </radialGradient>
  <filter id="b">
   <feGaussianBlur stdDeviation="0.99789533"/>
  </filter>
 </defs>
 <g>
  <path d="m343.4 449.82c-5.8186-0.71365-6.4561-1.3455-5.1777-5.1329 0.80178-2.3755 1.5582-7.8864 1.6809-12.246 0.20557-7.3039-0.37242-8.2183-7.3491-11.626-6.735-3.2896-8.8981-3.4376-19.565-1.3391-6.5958 1.2976-14.926 3.7581-18.511 5.4677-7.2265 3.4461-7.1496 3.4823-23.918-11.24l-7.2446-6.3609 7.1907-5.9272c15.767-12.996 3.9912-29.317-25.988-36.02l-11.413-2.5518-4.389-12.765c-6.4233-18.682-6.2019-19.702 4.2766-19.702 9.5178 0 14.976-4.7141 14.976-12.934 0-6.8595-9.6701-24.044-17.522-31.138-6.9367-6.2669-7.2913-7.1482-5.8326-14.497 0.85423-4.3032 2.9668-11.619 4.6947-16.258l3.1415-8.4343 5.0536 3.9752c9.3949 7.3901 20.12 4.1679 24.504-7.3616 2.3939-6.2964 2.3159-23.61-0.14494-32.191-1.7554-6.1209-1.3922-7.436 3.4682-12.557 2.986-3.1463 8.7409-8.3624 12.789-11.591l7.3597-5.8709 2.9492 7.0584c6.5204 15.606 22.691 12.324 34.462-6.9939 3.6013-5.9103 7.0422-13.124 7.6464-16.03 0.98263-4.7264 2.4002-5.5107 13.433-7.4319 20.549-3.5784 20.678-3.5342 20.281 6.945-0.46566 12.304 5.5405 17.626 17.971 15.922 9.4328-1.2929 23.012-7.5251 29.659-13.612l4.3735-4.005 10.719 4.3504c5.8953 2.3927 12.646 5.7001 15.001 7.3498l4.2822 2.9994-5.006 5.9493c-6.3786 7.5805-6.3446 13.675 0.11237 20.132 5.9736 5.9736 23.079 10.206 35.56 8.7997 7.9526-0.89638 8.4456-0.61357 14.306 8.2064 11.684 17.583 12.873 22.017 5.9029 22.017-2.4825 0-6.598 1.4599-9.1455 3.2442-3.9929 2.7968-4.495 4.4577-3.6402 12.042 1.159 10.283 7.1017 17.503 22.749 27.641 10.207 6.6131 10.405 6.9243 10.405 16.404v9.6628l-6.7256-2.0641c-14.649-4.4961-22.463 3.1331-20.241 19.764 1.1365 8.5075 9.3602 26.937 13.033 29.207 1.9855 1.2271-6.3587 19.681-12.563 27.784-3.0265 3.9526-3.0434 3.952-6.0269-0.22233-1.6456-2.3023-5.6977-5.3068-9.0047-6.6766-5.1274-2.1238-6.7713-1.9935-11.164 0.88496-7.4687 4.8936-13.217 19.395-13.479 34.003l-0.22038 12.301-13.119 7.1057c-7.2155 3.9082-14.013 7.1057-15.106 7.1057-1.0928 0-2.555-3.5521-3.2492-7.8935-2.8199-17.635-18.785-17.487-36.517 0.3384-5.6522 5.6819-10.786 11.936-11.409 13.898-0.91698 2.8891-3.0834 3.5065-11.403 3.2496-5.6491-0.1744-13.257-0.68338-16.907-1.131zm48.081-37.196c37.743-7.9959 67.928-33.718 81.687-69.609 6.9785-18.204 8.6318-47.384 3.748-66.149-9.7104-37.31-38.483-68.137-74.219-79.516-19.23-6.1233-47.931-6.0686-67.184 0.12797-79.53 25.596-103.9 126.23-44.866 185.26 26.349 26.349 64.35 37.611 100.83 29.882z" fill="#ff282a"/>
  <path d="m389.24 402.72c3.9459-0.48396 4.3781-0.91246 3.5112-3.4809-0.54372-1.6109-1.0567-5.3481-1.1399-8.3049-0.13941-4.9531 0.25255-5.5732 4.9838-7.884 4.5673-2.2308 6.0342-2.3312 13.268-0.90812 4.4729 0.87999 10.122 2.5485 12.553 3.7079 4.9006 2.337 4.8484 2.3615 16.22-7.6225l4.9129-4.3136-4.8763-4.0195c-10.692-8.8133-2.7066-19.881 17.624-24.427l7.7395-1.7305 2.9764-8.6568c4.3559-12.669 4.2058-13.361-2.9002-13.361-6.4544 0-10.156-3.1968-10.156-8.771 0-4.6517 6.5577-16.305 11.882-21.116 4.7041-4.2499 4.9446-4.8475 3.9553-9.8308-0.57929-2.9182-2.0119-7.8796-3.1837-11.025l-2.1304-5.7197-3.4271 2.6957c-6.3711 5.0115-13.644 2.8264-16.617-4.9922-1.6234-4.2698-1.5705-16.011 0.0983-21.83 1.1904-4.1508 0.94412-5.0427-2.352-8.5157-2.0249-2.1336-5.9276-5.6709-8.6726-7.8606l-4.9909-3.9813-2 4.7866c-4.4218 10.583-15.388 8.3574-23.37-4.7428-2.4422-4.0081-4.7757-8.8999-5.1854-10.871-0.66636-3.2052-1.6277-3.737-9.1095-5.0399-13.935-2.4267-14.023-2.3967-13.754 4.7097 0.31579 8.3442-3.7572 11.953-12.187 10.797-6.3968-0.87678-15.605-5.1031-20.113-9.2311l-2.9658-2.716-7.2688 2.9502c-3.9978 1.6226-8.5756 3.8655-10.173 4.9842l-2.904 2.034 3.3948 4.0344c4.3256 5.1407 4.3025 9.2738-0.0762 13.653-4.051 4.051-15.651 6.9215-24.115 5.9675-5.393-0.60788-5.7274-0.41609-9.7018 5.5651-7.9233 11.924-8.7295 14.931-4.003 14.931 1.6835 0 4.4744 0.99003 6.202 2.2001 2.7078 1.8966 3.0483 3.023 2.4686 8.166-0.78597 6.9732-4.816 11.87-15.427 18.745-6.922 4.4846-7.0559 4.6957-7.0559 11.124v6.5528l4.5609-1.3998c9.9345-3.049 15.233 2.1247 13.726 13.403-0.7707 5.7693-6.3476 18.267-8.8382 19.806-1.3465 0.83216 4.3121 13.347 8.5193 18.841 2.0524 2.6804 2.0638 2.68 4.0871-0.15077 1.1159-1.5613 3.8638-3.5988 6.1065-4.5277 3.4771-1.4403 4.5919-1.3519 7.5711 0.60013 5.0648 3.3186 8.9631 13.153 9.1406 23.059l0.14945 8.3415 8.8966 4.8187c4.8932 2.6503 9.503 4.8187 10.244 4.8187 0.74108 0 1.7326-2.4088 2.2034-5.3529 1.9123-11.959 12.739-11.859 24.764 0.22948 3.833 3.8532 7.3146 8.0942 7.7368 9.4246 0.62185 1.9592 2.091 2.3779 7.733 2.2037 3.8309-0.11827 8.9903-0.46343 11.465-0.76698zm-32.606-25.224c-25.595-5.4224-46.065-22.866-55.396-47.205-4.7324-12.345-5.8536-32.133-2.5417-44.859 6.585-25.302 26.097-46.207 50.331-53.923 13.041-4.1525 32.504-4.1154 45.56 0.0868 53.933 17.358 70.46 85.602 30.425 125.64-17.869 17.869-43.639 25.506-68.379 20.264z" fill="#ff7f00" filter="url(#b)"/>
  <path d="m412.97 529.88c9.0024-1.1041 9.9886-2.0817 8.0108-7.9415-1.2405-3.6753-2.4108-12.202-2.6006-18.947-0.31806-11.3 0.57619-12.715 11.37-17.987 10.42-5.0895 13.767-5.3186 30.27-2.0719 10.205 2.0077 23.092 5.8144 28.639 8.4594 11.181 5.3317 11.062 5.3877 37.005-17.391l11.209-9.8413-11.125-9.1704c-24.394-20.107-6.1751-45.359 40.208-55.73l17.657-3.9481 6.7905-19.75c9.9379-28.905 9.5954-30.482-6.6166-30.482-14.726 0-23.171-7.2935-23.171-20.011 0-10.613 14.961-37.2 27.109-48.175 10.732-9.696 11.281-11.06 9.024-22.429-1.3216-6.6578-4.5902-17.977-7.2635-25.154l-4.8605-13.049-7.8188 6.1502c-14.536 11.434-31.129 6.4485-37.911-11.39-3.7037-9.7416-3.5831-36.529 0.22425-49.804 2.716-9.47 2.154-11.505-5.366-19.428-4.6198-4.8678-13.524-12.938-19.786-17.934l-11.387-9.0833-4.5629 10.921c-10.088 24.144-35.107 19.067-53.318-10.821-5.5719-9.1443-10.896-20.305-11.83-24.801-1.5203-7.3125-3.7136-8.526-20.783-11.498-31.792-5.5364-31.992-5.468-31.378 10.745 0.72045 19.037-8.5721 27.27-27.804 24.634-14.594-2.0004-35.603-11.643-45.887-21.061l-6.7665-6.1964-16.584 6.7308c-9.121 3.7019-19.565 8.8191-23.209 11.371l-6.6253 4.6405 7.7451 9.2045c9.8687 11.728 9.8161 21.158-0.17385 31.148-9.2422 9.2422-35.707 15.791-55.017 13.615-12.304-1.3868-13.067-0.9493-22.135 12.697-18.077 27.204-19.916 34.064-9.1328 34.064 3.8409 0 10.208 2.2587 14.15 5.0194 6.1777 4.327 6.9546 6.8969 5.632 18.631-1.7932 15.909-10.988 27.081-35.197 42.765-15.792 10.232-16.098 10.713-16.098 25.379v14.95l10.406-3.1936c22.665-6.9562 34.754 4.8475 31.317 30.578-1.7583 13.163-14.482 41.676-20.164 45.188-3.0719 1.8986 9.838 30.45 19.437 42.986 4.6824 6.1154 4.7086 6.1144 9.3246-0.34397 2.5459-3.5621 8.8152-8.2105 13.932-10.33 7.933-3.286 10.476-3.0844 17.273 1.3692 11.555 7.5713 20.449 30.008 20.854 52.608l0.34096 19.031 20.297 10.994c11.164 6.0466 21.681 10.994 23.372 10.994 1.6908 0 3.9529-5.4956 5.027-12.213 4.3629-27.284 29.063-27.055 56.498 0.52357 8.7449 8.7909 16.688 18.467 17.651 21.502 1.4187 4.47 4.7706 5.4252 17.643 5.0277 8.7402-0.26982 20.511-1.0573 26.158-1.7498zm-74.389-57.549c-58.395-12.371-105.1-52.167-126.38-107.7-10.797-28.165-13.355-73.311-5.7988-102.34 15.024-57.726 59.54-105.42 114.83-123.03 29.752-9.4738 74.157-9.3892 103.95 0.19799 123.05 39.602 160.75 195.3 69.415 286.64-40.767 40.767-99.561 58.191-156.01 46.233z" fill="url(#a)"/>
  <text x="-141.11157" y="-535.02179" fill="#000000" font-family="Sans" font-size="47.894px" letter-spacing="0px" word-spacing="0px" style="line-height:125%"/>
 </g>
</svg>
